<mxfile host="app.diagrams.net" modified="2022-05-01T16:30:07.312Z" agent="5.0 (Windows)" etag="eW9rI04Lfmb4sYdIueah" version="17.5.0" type="github">
  <diagram id="UfMPzWFnFzxqbffYzVMw" name="Page-1">
    <mxGraphModel dx="1102" dy="534" grid="1" gridSize="10" guides="1" tooltips="1" connect="1" arrows="1" fold="1" page="1" pageScale="1" pageWidth="850" pageHeight="1100" math="0" shadow="0">
      <root>
        <mxCell id="0" />
        <mxCell id="1" parent="0" />
        <mxCell id="XSYFVMKUtkD-H1u4hj6i-2" value="" style="strokeWidth=1;shadow=0;dashed=0;align=center;html=1;shape=mxgraph.mockup.containers.browserWindow;rSize=0;strokeColor=#666666;strokeColor2=#008cff;strokeColor3=#c4c4c4;mainText=,;recursiveResize=0;" parent="1" vertex="1">
          <mxGeometry x="70" y="70" width="750" height="440" as="geometry" />
        </mxCell>
        <mxCell id="XSYFVMKUtkD-H1u4hj6i-3" value="HOS" style="strokeWidth=1;shadow=0;dashed=0;align=center;html=1;shape=mxgraph.mockup.containers.anchor;fontSize=17;fontColor=#666666;align=left;" parent="XSYFVMKUtkD-H1u4hj6i-2" vertex="1">
          <mxGeometry x="60" y="12" width="110" height="26" as="geometry" />
        </mxCell>
        <mxCell id="XSYFVMKUtkD-H1u4hj6i-4" value="192.168.70.75:8080/hos" style="strokeWidth=1;shadow=0;dashed=0;align=center;html=1;shape=mxgraph.mockup.containers.anchor;rSize=0;fontSize=17;fontColor=#666666;align=left;" parent="XSYFVMKUtkD-H1u4hj6i-2" vertex="1">
          <mxGeometry x="130" y="60" width="250" height="26" as="geometry" />
        </mxCell>
        <mxCell id="4uHQJCX2Fivl2QLk6r_y-2" value="" style="swimlane;startSize=0;" vertex="1" parent="XSYFVMKUtkD-H1u4hj6i-2">
          <mxGeometry y="110" width="150" height="320" as="geometry" />
        </mxCell>
        <mxCell id="4uHQJCX2Fivl2QLk6r_y-5" value="" style="shape=image;verticalLabelPosition=bottom;labelBackgroundColor=default;verticalAlign=top;aspect=fixed;imageAspect=0;image=data:image/png,iVBORw0KGgoAAAANSUhEUgAADbQAAAMBCAYAAACNttNuAAAACXBIWXMAAC4jAAAuIwF4pT92AAAgAElEQVR42uzdQW7cVrr34X+CnnEg9Qqs5gasXoGqVxDdFbi8glYAzqMAd0jgKitIaQVXHtzxLa+gpQ0Q0g6kAWcfoG/AclvJTWLHrjpFsp4HECx3B92H76liRj+83zw/PwcAAAAAAAAAAAAAAAAAdu1bIwAAAAAAAAAAAAAAAACgBEEbAAAAAAAAAAAAAAAAAEUI2gAAAAAAAAAAAAAAAAAoQtAGAAAAAAAAAAAAAAAAQBGCNgAAAAAAAAAAAAAAAACKELQBAAAAAAAAAAAAAAAAUISgDQAAAAAAAAAAAAAAAIAiBG0AAAAAAAAAAAAAAAAAFCFoAwAAAAAAAAAAAAAAAKAIQRsAAAAAAAAAAAAAAAAARQjaAAAAAAAAAAAAAAAAAChC0AYAAAAAAAAAAAAAAABAEYI2AAAAAAAAAAAAAAAAAIoQtAEAAAAAAAAAAAAAAABQhKANAAAAAAAAAAAAAAAAgCIEbQAAAAAAAAAAAAAAAAAUIWgDAAAAAAAAAAAAAAAAoAhBGwAAAAAAAAAAAAAAAABFCNoAAAAAAAAAAAAAAAAAKELQBgAAAAAAAAAAAAAAAEARgjYAAAAAAAAAAAAAAAAAihC0AQAAAAAAAAAAAAAAAFCEoA0AAAAAAAAAAAAAAACAIgRtAAAAAAAAAAAAAAAAABQhaAMAAAAAAAAAAAAAAACgCEEbAAAAAAAAAAAAAAAAAEUI2gAAAAAAAAAAAAAAAAAoQtAGAAAAAAAAAAAAAAAAQBGCNgAAAAAAAAAAAAAAAACKELQBAAAAAAAAAAAAAAAAUISgDQAAAAAAAAAAAAAAAIAiBG0AAAAAAAAAAAAAAAAAFCFoAwAAAAAAAAAAAAAAAKAIQRsAAAAAAAAAAAAAAAAARQjaAAAAAAAAAAAAAAAAAChC0AYAAAAAAAAAAAAAAABAEYI2AAAAAAAAAAAAAAAAAIoQtAEAAAAAAAAAAAAAAABQhKANAAAAAAAAAAAAAAAAgCIEbQAAAAAAAAAAAAAAAAAUIWgDAAAAAAAAAAAAAAAAoAhBGwAAAAAAAAAAAAAAAABFCNoAAAAAAAAAAAAAAAAAKELQBgAAAAAAAAAAAAAAAEARgjYAAAAAAAAAAAAAAAAAihC0AQAAAAAAAAAAAAAAAFCEoA0AAAAAAAAAAAAAAACAIgRtAAAAAAAAAAAAAAAAABQhaAMAAAAAAAAAAAAAAACgCEEbAAAAAAAAAAAAAAAAAEUI2gAAAAAAAAAAAAAAAAAoQtAGAAAAAAAAAAAAAAAAQBGCNgAAAAAAAAAAAAAAAACKELQBAAAAAAAAAAAAAAAAUISgDQAAAAAAAAAAAAAAAIAiBG0AAAAAAAAAAAAAAAAAFCFoAwAAAAAAAAAAAAAAAKAIQRsAAAAAAAAAAAAAAAAARQjaAAAAAAAAAAAAAAAAAChC0AYAAAAAAAAAAAAAAABAEYI2AAAAAAAAAAAAAAAAAIoQtAEAAAAAAAAAAAAAAABQhKANAAAAAAAAAAAAAAAAgCIEbQAAAAAAAAAAAAAAAAAUIWgDAAAAAAAAAAAAAAAAoAhBGwAAAAAAAAAAAAAAAABFCNoAAAAAAAAAAAAAAAAAKELQBgAAAAAAAAAAAAAAAEARgjYAAAAAAAAAAAAAAAAAihC0AQAAAAAAAAAAAAAAAFCEoA0AAAAAAAAAAAAAAACAIgRtAAAAAAAAAAAAAAAAABQhaAMAAAAAAAAAAAAAAACgCEEbAAAAAAAAAAAAAAAAAEUI2gAAAAAAAAAAAAAAAAAoQtAGAAAAAAAAAAAAAAAAQBGCNgAAAAAAAAAAAAAAAACKELQBAAAAAAAAAAAAAAAAUISgDQAAAAAAAAAAAAAAAIAiBG0AAAAAAAAAAAAAAAAAFCFoAwAAAAAAAAAAAAAAAKAIQRsAAAAAAAAAAAAAAAAARQjaAAAAAAAAAAAAAAAAAChC0AYAAAAAAAAAAAAAAABAEYI2AAAAAAAAAAAAAAAAAIoQtAEAAAAAAAAAAAAAAABQhKANAAAAAAAAAAAAAAAAgCIEbQAAAAAAAAAAAAAAAAAUIWgDAAAAAAAAAAAAAAAAoAhBGwAAAAAAAAAAAAAAAABFCNoAAAAAAAAAAAAAAAAAKELQBgAAAAAAAAAAAAAAAEARgjYAAAAAAAAAAAAAAAAAihC0AQAAAAAAAAAAAAAAAFCEoA0AAAAAAAAAAAAAAACAIgRtAAAAAAAAAAAAAAAAABQhaAMAAAAAAAAAAAAAAACgCEEbAAAAAAAAAAAAAAAAAEUI2gAAAAAAAAAAAAAAAAAoQtAGAAAAAAAAAAAAAAAAQBGCNgAAAAAAAAAAAAAAAACKELQBAAAAAAAAAAAAAAAAUISgDQAAAAAAAAAAAAAAAIAiBG0AAAAAAAAAAAAAAAAAFCFoAwAAAAAAAAAAAAAAAKAIQRsAAAAAAAAAAAAAAAAARQjaAAAAAAAAAAAAAAAAAChC0AYAAAAAAAAAAAAAAABAEYI2AAAAAAAAAAAAAAAAAIoQtAEAAAAAAAAAAAAAAABQhKANAAAAAAAAAAAAAAAAgCIEbQAAAAAAAAAAAAAAAAAUIWgDAAAAAAAAAAAAAAAAoAhBGwAAAAAAAAAAAAAAAABFCNoAAAAAAAAAAAAAAAAAKOIvRgDANvRNfZrk+Df+q+Mkp1/wP3m/+fk/qrZbmzgAAAAAAAAAAAAAAEzPN8/Pz6YAwL/1Tf0yQDvZ/Pz69yQ5G9Gx37/4/TbJ469+f6za7tbtAgAAAAAAAAAAAADAfgnaAA5M39SLza+//vM0ydEBjOBD/LZ+8afgDQAAAAAAAAAAAAAAChC0AczMiw1rJ5uf0yTHGddGtbF6SHKfTeSWYcPbbdV2j0YDAAAAAAAAAAAAAABfT9AGMFEvwrUP8dqH349MZ+tehm4fIrd7YwEAAAAAAAAAAAAAgD9H0AYwAX1Tf4jVXv4I1/brKUPctv7wp01uAAAAAAAAAAAAAADwxwRtACPzG/HamalMxl0+Rm5rW9wAAAAAAAAAAAAAAOCXBG0Ae9Q39UmGaG0R8docPWQTt0XgBgAAAAAAAAAAAAAAgjaAkjbb1xb5GLG9MpWDcpePcduNcQAAAAAAAAAAAAAAcGgEbQA79CJg+/BzZCpsPGWI226S3FRt92gkAAAAAAAAAAAAAADMnaANYIsEbHyFuySrDHHbvXEAAAAAAAAAAAAAADBHgjaAr9A39Uk+xmvnEbCxHeI2AAAAAAAAAAAAAABmSdAG8Cf1Tb3IEK8tkrw2EXbsLslVhrjt0TgAAAAAAAAAAAAAAJgyQRvAJ/RNfZwhYPsQsdnCxr5cZwjbbowCAAAAAAAAAAAAAIApErQB/Ia+qU8yBGzL2MLG+DwkWSVZVW13bxwAAAAAAAAAAAAAAEyFoA1go2/q0wwB23mSVybCRLzLELbZ2gYAAAAAAAAAAAAAwOgJ2oCDJmJjRh6SXGWI2x6NAwAAAAAAAAAAAACAMRK0AQdHxMbMPSVZJbmq2u7eOAAAAAAAAAAAAAAAGBNBG3AQRGwcqOsMYdutUQAAAAAAAAAAAAAAMAaCNmC2+qY+yRCxLSNi47C9T3JZtd3aKAAAAAAAAAAAAAAA2CdBGzArfVMfZ9jCdpHktYnALwjbAAAAAAAAAAAAAADYK0EbMAt9U59nCNnemAZ8krANAAAAAAAAAAAAAIC9ELQBk9U39UmGTWznSV6ZCPxp1xnCtnujAAAAAAAAAAAAAACgBEEbMDl9Uy+TLJOcmQZsxXWSi6rtHo0CAAAAAAAAAAAAAIBdErQBk/BiG9syyZGJwNY9Jbmq2u7SKAAAAAAAAAAAAAAA2BVBGzBqtrFBcQ8ZtrXdGAUAAAAAAAAAAAAAANsmaANGZ7ONbZlhI5ttbLAf75Msq7a7NwoAAAAAAAAAAAAAALZF0AaMRt/UiwwR23emAaPwlOSqartLowAAAAAAAAAAAAAAYBsEbcDe9U29THKZ5JVpwCjdJbmo2m5tFAAAAAAAAAAAAAAAfA1BG7AXfVMfZ9jGdpHkyERgEn5Kclm13aNRAAAAAAAAAAAAAADwJQRtQFF9U59k2Mb2xjRgkh6SLG1rAwAAAAAAAAAAAADgSwjagCL6pl5kCNnOTGOn3v/q77dJPrVN63HzzyXJ4jP+P06THL/4+0mSV0Z/cH6q2u7CGAAAAAAAAAAAAAAA+DMEbcBO9U29TLKMkO1rfIjUPsRpLwO0+6rt7kd038cZgrdkCN1OMsRvH/4zn4N5ucuwre3WKAAAAAAAAAAAAAAA+ByCNmAnNiHbZWzu+hx3GSK19ebv6ySPc46ENhv7PoRuJ5sfsds0PSW5rNruyigAAAAAAAAAAAAAAPgUQRuwNZvtXOcRsv2euwyb1e5zANHaV3yGTl/8nEToNhXvMmxrezQKAAAAAAAAAAAAAAB+j6AN+GqbCOli83NkInnKEK6tN3/eC9e++jP2MnJbJHltKqP0kOTc5x0AAAAAAAAAAAAAgN8jaAO+mJDt397nY7x2W7XdvU9Hkc/fIkPctsgQuokpx+EpyUXVdiujAAAAAAAAAAAAAADg1wRtwJ924CHbQz7Ga2ubqEb1ufywvW2R5DsT2bvrqu2WxgAAAAAAAAAAAAAAwEuCNuCzHWjI9iFgW2cI2O59EibzeV0kOc8QuL02kb14n+S8artHowAAAAAAAAAAAAAAIBG0AZ+pb+plkqvMP2R7SnITAdvcPr8nGcK289jeVtpDhqjNNkMAAAAAAAAAAAAAAARtwB/bhGyXSV7N+DHfZxOxiW4O4jN9nI9x23kOZ9vgPj1liNrWRgEAAAAAAAAAAAAAcNgEbcBv6pv6PMNGtjmGbB+2sH2I2B7d+MF/1s+TvDGNnXtbtd3KGAAAAAAAAAAAAAAADpegDfiFvqkXGTaync3s0R4yBGwrW9j4nc/+cT5ubfvORHbm+6rtrowBAAAAAAAAAAAAAOAwCdqAJEnf1CdJVplXyHa3eaa1iI0v+D4sNz+vTGTrrqu2WxoDAAAAAAAAAAAAAMDhEbTBgdtspbpK8mYmj/QhYrup2u7eDbOF78giQ9j2xjS2StQGAAAAAAAAAAAAAHCABG1woDYh28Xm52jij/OQ5CbJlYiNAt+ZZWxt2xZRGwAAAAAAAAAAAADAgRG0wQHqm3qZ5DLTjnKe8jFiu3Wr7OE7tExyZhpf7TrJRdV2j0YBAAAAAAAAAAAAADB/gjY4IH1TLzKEbFOOcN4lWVVtd+NGGcl3apnkjWl8lbskC1EbAAAAAAAAAAAAAMD8CdrgAPRNfZIhZJtqdPOQ5CrJTdV2924U37FZuq7abmkMAAAAAAAAAAAAAADzJmiDmeub+jLJRZKjCR7/OsM2trWbZCLft5MI277qOy9qAwAAAAAAAAAAAACYN0EbzFTf1IskqySvJnb0D9vYVlXbPbpJJvr9O4mw7UuJ2gAAAAAAAAAAAAAAZkzQBjOzCWmuknw3saO/yxCx3bhFZvZ9vIyw7c8StQEAAAAAAAAAAAAAzJSgDWakb+rLJBdJjiZy5KckN0kuq7a7d4PM+Lt5kmFj4plpfLYfq7a7NAYAAAAAAAAAAAAAgHkRtMEM9E29yBDLvJrIkR8ybJFbVW336AY5sO/qVZLXpvFZ3lZttzIGAAAAAAAAAAAAAID5ELTBhPVNfZwhjnkzkSPfJbkSqOC7Wy83390j0/ikf1RttzYGAAAAAAAAAAAAAIB5ELTBRPVNfZHkMtMIYt4nuRSlwC++w8eb7/A/TeMPPSVZVG13axQAAAAAAAAAAAAAANMnaIOJ6Zv6JMkqydkEjnudZCVkgz/8Tp9m2NZ2Zhq/6yHJadV2j0YBAAAAAAAAAAAAADBtgjaYkL6pL5P8MIGjXmfYyHbv1uCzv99T2rq4D3dV250aAwAAAAAAAAAAAADAtAnaYAI2G5xWSV6P/KhCNvi67/pJhm1t35nGb79jqrZbGgMAAAAAAAAAAAAAwHQJ2mDE+qY+zrCx6Z8jP6qQDbb73T/PELHa1vZ/va3abmUMAAAAAAAAAAAAAADTJGiDkeqbepEhaHk14mMK2WB374DjJDdJzkzjF56SLKq2uzUKAAAAAAAAAAAAAIDpEbTByExkK9v7JBeCEijyTrjYvBNsa/voIclp1XaPRgEAAAAAAAAAAAAAMC2CNhiRCWxle59hI9vabUHRd8Pp5t3w2jT+7V3VdufGAAAAAAAAAAAAAAAwLYI2GIm+qS+T/DDS4z1k2Mh246Zgr++Jq4x7e2Npb6u2WxkDAAAAAAAAAAAAAMB0CNpgz0a+eekpQ8i2clMwmnfG+eadcWQaeUpyWrXdvVEAAAAAAAAAAAAAAEzDt0YA+7PZyvavjDNm+zHJiZgNxmWzKfE0yZ1p5CiJzZEAAAAAAAAAAAAAABNiQxvsQd/UJxk2LJ2N8HjvMmxlu3dTMOr3yHGSqyRvTCM/Vm13aQwAAAAAAAAAAAAAAOMnaIPC+qZeZohQjkZ2tLsMIdvaLcGk3ikXSf7LJPL3qu1ujQEAAAAAAAAAAAAAYNwEbVDIZpvSKsl3IzvaU5LLqu2u3BJM9v2ySHKT8YWyJd1VbXfq0wAAAAAAAAAAAAAAMG7fGgHs3iY2uc34YrbrJCdiNpi2zWbFRZKHAx7D676pL30aAAAAAAAAAAAAAADGzYY22LFNYPHDyI51l+RiE8EA83nfHCdZJ3l9wGP4W9V29z4NAAAAAAAAAAAAAADjJGiDHdmEJTdJzkZ0rKckV1XbXbohmPW75yrJmwMdwfuq7RY+CQAAAAAAAAAAAAAA4yRogx3om/o8ySrJ0YiO9T7J0uYiOJj30CqHG7W9rdpu5VMAAAAAAAAAAAAAADA+gjbYsr6pr5L8c0RHesoQst24HfA+OhBPSU6qtnv0KQAAAAAAAAAAAAAAGJdvjQC2o2/qk76pbzOueORdhqhDzAYHqGq7iyRvD/DRj5Jc+AQAAAAAAAAAAAAAAIyPDW2wBX1TnydZZYgoxsBWNuDlO2qZ5OcDfPS/VW137xMAAAAAAAAAAAAAADAeNrTBV+qb+jLJf2c8Mdt1bGUDXqjabpXD3NR25fYBAAAAAAAAAAAAAMbFhjb4Qn1THye5SXI2kiPZygZ86r21zOFtavtH1XZrtw8AAAAAAAAAAAAAMA42tMEX6Jv6NMltxhOzvYutbMAnHOimtks3DwAAAAAAAAAAAAAwHja0wZ80sg1HtrIBU3+PlfAf3pMAAAAAAAAAAAAAAONgQxv8CX1TrzKeCOR9klORBvBnbTa1fX9Aj3zl1gEAAAAAAAAAAAAAxsGGNvgMfVMfJ1kneT2SI31ftZ1AA/jad9sqyZsDedy3m5APAAAAAAAAAAAAAIA9sqENPqFv6tMk9xlHzPaQ5O9iNmAbqrZbJrk+kMe9dOMAAAAAAAAAAAAAAPsnaIM/0Df1Msm/khyN4DjXSU6rtrt1M8C2bKK29wfwqK8273QAAAAAAAAAAAAAAPZI0Aa/o2/qqyQ/j+AoT0neVm23rNru0c0AO3Ce5O4AnvPCVQMAAAAAAAAAAAAA7Nc3z8/PpgAv9E19nOQmydkIjnOXZGkrG1Dg3XeS5Dbj2Ei5S/+o2m7txgEAAAAAAAAAAAAA9sOGNnihb+rTJOuMI2a7TrIQswElVG13n2RxAI966bYBAAAAAAAAAAAAAPbHhjbYeBGz7Xs70VOSi6rtVm4F2MO7cJnk55k/5t82AR8AAAAAAAAAAAAAAIXZ0Ab5d8Dxr+w/ZnvIsJVt5VaAfdi8f36a+WNeumkAAAAAAAAAAAAAgP2woY2D1zf1ZZIfRnCUd0mWVds9uhVgBO/GdZKzGT/iX71vAQAAAAAAAAAAAADK+4sRcMj6pl4leTOCo/xYtd2lGwFG5DzJffa/uXJXlkmuXDMAAAAAAAAAAAAAQFk2tHGQ+qY+TrJO8nrPR3nKsJXtxq0AI3xXLpL870wf76FquxO3DAAAAAAAAAAAAABQ1rdGwKHpm/ok44jZHpIsxGzAWFVtt07y40wf79Um2AMAAAAAAAAAAAAAoCBBGwelb+rTJLfZf8x2l+S0artbtwKMWdV2l0nez/Txlm4YAAAAAAAAAAAAAKCsb56fn02Bg7DZxHOT5GjPR7mu2m7pRoAJvT+Pk9yP4P25C3+t2u7RLQMAAAAAAAAAAAAAlGFDGwehb+plkv/N/mOM78VswNRsgq+5vrvO3TAAAAAAAAAAAAAAQDmCNmZvE7P9vOdjPCX5j6rtrtwIMEVV290keTfDR7twuwAAAAAAAAAAAAAA5QjamLW+qa8yjphtsYlBAKZsmeRhZs/0um/qE1cLAAAAAAAAAAAAAFCGoI3Z6pt6leSfez7GXZLTqu1u3QgwdVXbPWaI2ubm3O0CAAAAAAAAAAAAAJQhaGOWNjHbmz0f4y7DZrZ7NwLMRdV26yTvZvZYSzcLAAAAAAAAAAAAAFDGN8/Pz6bAbPRNfZxkleS7PR/lumq7pRsBZvyuvU9yNKPH+psAGQAAAAAAAAAAAABg92xoYzY2gcU6YjaAnara7jHJxcwe69zNAgAAAAAAAAAAAADsnqCNWXgRs73e81G+F7MBh6Bqu1WS9zN6JEEbAAAAAAAAAAAAAEABgjYmb0Qx29uq7a7cCHBAljN6lrPNv08AAAAAAAAAAAAAANghQRuTNrKYbeVGgENStd19kh9n9Ei2tAEAAAAAAAAAAAAA7JigjckaScz2FDEbcNiuNu/COVi4TgAAAAAAAAAAAACA3RK0MUkjitkWYjbgkFVt95jkYiaPY0MbAAAAAAAAAAAAAMCOffP8/GwKTMrIYrZbNwKQ9E19u+f38rb83bsdAAAAAAAAAAAAAGB3bGhjUsRsAKM1ly1tC1cJAAAAAAAAAAAAALA7gjYmQ8wGMF5V262TvJ/BoyzcJgAAAAAAAAAAAADA7gjamAQxG8AkXM7gGRauEQAAAAAAAAAAAABgdwRtjJ6YDWAaZrKl7ahv6lO3CQAAAAAAAAAAAACwG4I2Rk3MBjA5yxk8w8I1AgAAAAAAAAAAAADshqCN0RKzAUxP1Xb3Sa4n/hg2tAEAAAAAAAAAAAAA7IigjVESswFM2mri5xe0AQAAAAAAAAAAAADsyDfPz8+mwKiMJGZLkr+L2QC++F2+TnI24Uf4a9V2j24SAAAAAAAAAAAAAGC7bGhjjK6y/5jtrZgN4KtcTvz8trQBAAAAAAAAAAAAAOyAoI1R6Zt6leTNno/xtmq7ldsA+HJV262T3E34ERZuEQAAAAAAAAAAAABg+wRtjIaYDWB2riZ89hPXBwAAAAAAAAAAAACwfYI2RqFv6svsP2b7ScwGsD2bd+rDRI9/4gYBAAAAAAAAAAAAALZP0Mbe9U29TPLDno9xXbXdhdsA2LrVRM995uoAAAAAAAAAAAAAALZP0MZebWK2n/d8jHdV2y3dBsBOXE3431Enrg8AAAAAAAAAAAAAYLsEbexN39Sn2X/ocJdk6TYAdqNqu8ck1xM9/okbBAAAAAAAAAAAAADYLkEbe7GJ2dZJjvZ4jIcki01sAcDurCZ67oWrAwAAAAAAAAAAAADYLkEbxfVNfZzkJvuN2Z6SnIvZAHavart1hoh4ao7dHgAAAAAAAAAAAADAdgnaKGoTs62TvNrzURZV2926EYBiriZ45lPXBgAAAAAAAAAAAACwXYI2Slsleb3nM7wVswEUdzPBM9vQBgAAAAAAAAAAAACwZYI2iumbepXkuz0f46eq7VZuA6Csqu3uk7yb2LFfuzkAAAAAAAAAAAAAgO0StFFE39TLJG/2fIx3VdtduA2AvZnclra+qW1pAwAAAAAAAAAAAADYIkEbO9c39XmSn/d8jLskS7cBsFc3EzzzqWsDAAAAAAAAAAAAANgeQRs71Tf1aZLVno/xlOS8artHNwKwP5v38DuTAAAAAAAAAAAAAAA4XII2dqZv6uMM23iO9nyU86rt7t0IwChMbUubDW0AAAAAAAAAAAAAAFskaGOX1kle7fkM31dtt3YVAKMxtaDt2JUBAAAAAAAAAAAAAGyPoI2d6Jt6leT1no9xXbXdldsAGI+q7R6TvDMJAAAAAAAAAAAAAIDDJGhj6/qmvkjyZs/HuEty4TYARmk9obOeui4AAAAAAAAAAAAAgO0RtLFVfVMvkvzXno/xlGS52QIEwPjcTOisx64LAAAAAAAAAAAAAGB7/mIEbEvf1CcZR6SwrNru1o3A9Py///nP0/x+QHSy+fmUx/x/9u6nt7Es7w/77/ajWI8t29I4TmA7C3G0ySaANG8gYq+1KM0LEIoNaF8aQEsBxQa4FNDqvYJiQS9gVAtuggBDvYKRkGyCIBrJRmDn8eM8kgH5sWxO3yzu5ZSquqqaVJG8/z4fQKiqbkm8POfy8hze8z2/iM9eA5Z2joZaulgrx9c3D4cbVxGxqTUAAAAAAAAAAAAAAJpFoI2ZeDjcWIsszLZa8KH8uHJ8fa5HoHijQa+d/3UtIrbyv7fiw1DadgHH9fF/uo2Imyf/Hn7i7zdLO0c3enWmhiHQBgAAAAAAAAAAAADQOAJtzMpJFB9MuFo5vj7QFTB/o0FvHFL71J9VCymt519jT0N2r5885/FfL/I/h/mflxFxp/Lb1IYR8aoCx9nSVQAAAAAAAAAAAAAAs5OkaaoV+CoPhxudiHhT8GHcR8TWyvH1jR6B2RkNeluRBXrGf7aigKpqFXMRWcW3m8jCbjdLO0eXmuWT7x+VGISsHF8negsAAAAAAAAAAAAAYDYE2vgqD4cbWxHxxxIcym9Xjq/P9Qg8z5OKa+14H2Db1DIzdRtZyG0Ygm7j95BhVCAgKdAGAAAAAAAAAAAAADA7S5qA53o43FiLiDKEyN4Ks8HkPgqvbeVf61pm7tbzr+0nfRGRVaFKh/UAACAASURBVHS7HH81LOQ2DBX/AAAAAAAAAAAAAAAaRaCNr3EexYdgbiPiQFfA540GvVZk4bV2qLxWRtvx5ZDbcGnn6Kamz30YEa+dAvA8SZJ0IquqWcnXf5qmQ71IiV5P47FSFd2kadrXiwAAAFAvSZK0IqJT1eNP07SrFwEAAAAA+JwkTVOtwNQeDje6UY4Qwm9Wjq8v9Qi8lwfYduN9gE31teq7jyz8NYws4Fab697D4UbpByIrx9eJU5BSDuSTZBjVrXL4vQUtlOz1VJb5zXNcpGna1osAAABQL/kGPH+o6vGnaeqzdQAAAAAAPkuFNqb2cLjRjnIs9vxemA1+VoGtHQJsdbQaES/yr6dV3IYRcV7xgNtVqBoIAAAAAAAAAAAAANAYAm1M5eFwYy0izktwKBcrx9ddPUJTjQa9dryvwiYM1Ezb+dfr0aD3tILb+dLO0U2FnsfQOQwAAAAAAAAAAAAA0BwCbUzrPLJKQUW6j4iOrqBJRoPeWrwPsO2W4HVIuTyt4PbDaNC7jTzcFhHDpZ2juxIfu0qbAAAAAAAAAAAAAAANItDGxB4ONw4iqwZUtO7K8fWNHqHunoTYdiMLKsGk1iPiZf4Vo0HvXZS3eptAGwAAAAAAAAAAAABAgwi0MZGHw42tiPihBIdysXJ8faJHqCshNubkafW2q8jCbf2lnaPCw2Qrx9eXD4cbeggAAAAAAAAAqKQkSdYiYqsuzydN06FeBQAA5k2gjV/0cLixFhHnJTiU+4jo6BHqRojts24j4ubJvy8j4u6j77mLr6vw1cq/Ptb+6N/bNWrXzfzr1WjQu82v70WH2y5q1sYAAAAAAAAAQHNsRcQfavR8El0KAADMm0AbkziJiPUSHEd35fj6RndQF6NBrx1ZSHM3IlYb9NTHQbXxV0RWMSwi4mZp5+imAv0WEfF0d62t/N+tklwvJ7UeEa+i+HDbZQi0AQAAAAAAAAAAAAA0gkAbX/RwuLEbES9LcCgXK8fXJ3qEqhsNeq3IQmydqFbwaVpXkYXVLuNJeK3sYbWJ3jh3joZP/nn+hX5++jUOvJU5tPVxuK0fWbhtEX124+oAAAAAAAAAAAAAANAMAm181sPhxlpkgYai3UcW/oHKGg16u/l5/KJmT+1pcO0ystDaZdP7Ow+B3XzmXBhXdtuK92G3rShXlb71iHgdEa9Hg95VZJU6z5d2ju7m9HiXrhIAAAAAAAAAAAAAAM0g0MaXnEc5AhYnK8fXN7qDqsmDSwdRn2psV/E+uHb5UaUyJn3jzUJhw/zr4/NlKyLa8T7otlmCQ96MiDcR8WY06L2NLNh2PuPHKHOg7dZZCwAAAAAAAAAAAAAwOwJtfNLD4cZBRGyX4FCuVo6vu3qEKhkNeluRBdleVvhp3EcWuLqMiKHw2gLekD8fdGvH+6DbVhQbjnwZES9Hg95tZBU8+3k1uq+ycnx993C4cR/lqlI3duPsBAAAAAAAAAAAAACYHYE2fubhcKMVEd2SHM6BHqEqRoPebn7Oblfw8McBtmFkAbZLPVqSN+osTDiMiJP8PFuLLNzWjizgVsT5th4RryPi9WjQexdZsO1rq7ZdVvS1AwAAAAAAAAAAAADAFATa+JTzKEeVnB9Xjq+HuoOyGw16nchCoOsVO/SL/PUuwFalN+6sktt5/jU+B9vxPuS26FDYi4h4kVdtO4ks3Hb3jN9zEwJtAAAAAAAAAAAAAAC1J9DGBx4ON7oRsVmCQ7mP8lSJg5/Jq2R1IqvIVpUg2228D7Cd68UavZm/r+I2Pj/bEbEbWcBtUdf09Yj4ISJ+GA16byOiu7RzdDPFz9+UtHnvnGEAAAAAAAAAAAAAALMj0MZfPBxubEXE65IczsHK8bUQAaWTB9kO8q/VChzyVeTVvFRha9Cb+5OAW37OjsNtuws6b19GxMvRoHcREScTBihvStqcXjcAAAAAAAAAAAAAADMk0MZT/ZIcx8XK8XVfd1AmFQuyXeWv5/MpK2RRxzf6naO7/Hzo5+fyVmTVBdsx/+pt2xGxPRr0biOr2Pala7tzFQAAAAAAAAAAYMaSJGlFtl6sHRGtiNiKydZB3ke2Ifhd/ucwTdOhFuUz51k7/+tafo6NbeX/7antijyt79M07epdgPkQaCMiIh4ON7ox/2DDpA70CGUyGvQOIqIb5Q6yCbEx2Rt/VqnvID+3W5FVbevM+T1gPSLejAa9bn6enuRBu6dU5QQAAAAAAAAAAJiBJEnWIlsbdhDPXxu2Gu+DRy8i4nWSJBERFxFxHhHnaZreaO3GnE9bkQUiP/5a10IAPIdAG/FwuNGK8oTI3q4cX1/qFcpgNOh1IguylXWwfR955a08pATTDQKy8ONJRJzkVQh3868Xc3rI9Yh4HREHo0HvJJ4E21aOry8fDjfK2ExDZwoAAAAAAAAAAFAFefDoIP+a1yb+2/nXD0mSvIuIE5XbanX+bD35asXkFf0AYCoCbURkgZgyDDTuQ3U2SmA06LUjC/lslvQQ30UWYjvXW8xsQJAFy/oR0X8SbjuY0+tgNT4TbAMAAAAAAAAAAGB6SZIcRLaJ/yLXBL+IiBdJktxGREewrXLnTDuywNr4T9XWAFgYgbaGezjcOIj35YCL1l05vhZooDCjQa8VWaBnu4SHdxvvq7Hd6C3mOjj4MNzWivfhtllPVj8MtiXJ/xFp+j+VrDm8LwEAAAAAAAAAAKWVJEkril/7uB4Rf0iS5CIiDtI0vdQzpTxX2pGF19pRzrWyADSIQFuDPRxurEW2E0MZ3K4cX5/oFYqQV6PqRsSrEh7eRWTVq1Rjo5iBQhagPImIk9GgtxURnfxrlrv4rEbE6+Sf/vNRev/vS/X8V46vfbACAAAAAAAAAACUUh5QOo/FVmX7ku2I+GOSJN+nadrVQ4WfH63INrRvR1ZNDwBKQ6Ct2folGsAe6A6KMBr0OpGFdVZLdmhvI6KrGhulGjTsHF3m1+uD/LWzO9NJbpIYlwAAAAAAAAAAAEwgSZJORLwp6eG9zsN2u2ma3umthZ4XrcjW9nUiYlOLAFBWFo431MPhRjvKk7S/WDm+Vn2KhcorTZ1EuUom3+fHdLK0c2QCR7kHEDtH/Yjojwa9Vj7xPYivDIYm//ifR3r3N2V6mhd6GgAAAAAAAAAAKJuSh9nGtiPiJkmSdpqml3ptrudDK4TYAKgYgbYGejjcWIusOltZdPUKizIa9Nbyc+5ViQ7rNj+mc0E2KjeQyKoIdiOim1dt68Qzg6LJ0j/QoAAAAAAAAAAAAF9QkTDb2GpEDIXa5nYujENsL7QGAFUj0NZMBxGxXpJjebdyfD3UJSzCaNBrRxbmLMv5fxsR3bzSFVR/UPFh1bZuRLys+FPy/gQAAAAAAAAAAJRGxcJsY0Jtsz0H1iJbC96J8qyHBYCpCbQ1zMPhRisiXpfokA70CvOWV2XrR3l2oBBko96Di6xqW2c06B2YOAMAAAAAAAAAAHy9JEm2IuKkoocv1Pb1/d+KbKP53bw9AaDSBNqap1+iY3m7cnx9o0uYp9Ggt5uf92UYvN9HFmQ70TM0YpCxc3SXT6C7o0Gvk//988G2pX9Qtqcw1IsAAAAAAAAAAEDR8qpc51HtINM41NZK0/ROr07c963I1t691BoA1Mk3mqA5Hg43diNiu0SH1NUrzMto0FsbDXr9iPh9CSZw9xHxfUS0hNloqqWdo/7SzlErIn4bERefHJT84/+2bIftQxMAAAAAAAAAAKAMuvGlzcSrYzWyYB6/IEmStSRJ+hHxpxBmA6CGBNoa4uFwYy3KVWZYdTbmZjTotSPisiQD+LcRsbW0c9TNq1VBoy3tHJ0v7Ry1I+Lb+EywrSxWjq+VtgcAAAAAAAAAAAqVJEk7Il7V6CltJ0lyoGe/2OfdiLgJQTYAamxJEzTGQZRrZ4auLmEeRoNeNyJel+BQLiLiYGnnSCAGPjUA2TkaRkQ7D6B2o1wVRCMirvQSAAAAAAAAAABQAic1fE7dJEnO0zS90b3v5eHFftSjGh8AfJFAWwM8HG60Igu0lYXqbMzcaNBrRVaGerPgQ7mPLMjW1yswwUDkSbAt/fN/PSnBa3jM+xQAAAAAAAAAAFCoJEk6UZ41VbO0GtlG6B29HJEkyVreHq+0BgBN8Y0maISTfOBXFl1dwiyNBr3diLgswaTtx4hoCbPB9JZ2joaj//1/K1P4WnVFAAAAAAAAAACgaN0aP7eXSZK0mt7BeVW2yxBmA6BhVGiruYfDjXZEvCjRIanOxkyNBr2TEgziryKryjbUI1AbAm0AAAAAAAAAAEBh8qDTes2fZjcaXKUtSZIyrIEFgEIItNVf1/FQR6NBby0iziNiu+BD+X5p58h5DfVzowkAAAAAAAAAAIACdRrwHF8mSdJN0/SmSR2bJElZ1sACQGG+0QT19XC40SnZQEd1NmZiNOhtRRY2KfL8voqI3wizQT2tHF+r0AYAAAAAAAAAABQiDzy9bMjT3W1Y35ZhDSwAFE6grd66joe6GQ16nYj4Y0SsFngY3y/tHG0t7RwJvEA9XWgCAAAAAAAAAACgQO0GPddOU55okiSdiBhGsWtgAaAUljRBPT0cbnQjYr1Eh3ShOhtfazTonUTEqwIP4TYiOks7R0O9AbXm/QoAAAAAAAAAAChSk6qWbSZJspam6V2dn2QeZnvj1AaAjEBbDT0cbqxFxEHJDqurZ3iu0aC3FhH9iHhR4GG8iyzMdqdHoPZUXwQAAAAAAAAAAIrUbuDzPa/rkxNmA4CfE2irp4MoVynaq5Xj66Fu4TnyMNswIjYLOoT7iDhY2jnq6w1oDIE2AAAAAAAAAACgSOsNe75bUdNAmzAbAHyaQFvNPBxutKJ81dlO9AzPMRr0xhOUoiZmtxGxu7RzJNwCi7FWhoMQwgYAAAAAAAAAAIqSJEm7gU+7XdO+7IQwGwB80jeaoHa6Ua7qbLcrx9d93cK08jDbMIoLs72LiC1hNliorcKPYPkf/p+6AQAAAAAAAAAAKNCa51x9wmwA8GUqtNVIXp3tZckOq69nmNZo0NvNz52iwpnfL+0cdfUENM83/92v/8fRoNePiIOlnaM7LQIAAAAAAAAAACzYVgOf82adnkySJFsRceJUBoDPU6GtXrolPCaDMaYyGvQ6EfH7KCbMdh8R3wmzQYMHRmv/MiILhw9Hg15LiwAAAAAAAAAAADCpJEnWImIYxRV1AIBKEGiriZJWZ3u7cnytug0Ty8NsRZVXvo+I9tLOUV9PQIMHRv/kn43/uhkRl6NBr61VAAAAAAAAAAAAmNB5CLMBwC8SaKuPbgmPqa9bmFTBYbariNha2jm61BNQqK1CH/2v/1Ekf/1Pnv6X1Yj4w2jQO9A1AAAAAAAAAAAAfEmSJN2I2NYSAPDLBNpqoKTV2a5Wjq+HeodJlCDM1l7aObrRE1C4tUIHRWv/8nP/64fRoNcfDXpruggAAAAAAAAAAICPJUmyFRGvtQQATEagrR66JTymE93CJAoOs72LLMx2pyeAb371r770v19GxFCoDQAAAAAAAAAAYObua/AcznUjAExOoK3iSlqd7d6gjEkUHGZ7u7RztCvMBqXSKnRQtPYvfulbNiPiZjTobekqAAAAAAAAAACAmbms8sEnSdKNiHXdCACTE2irvm4Jj+l85fhaSIgvKkGYraMXoHSKm9D/9T+K5K//ySTfuRpZpbZd3QUAAAAAAAAAADATlV13nCRJKyJe60IAmI5AW4WVtDpbRERf7/AleRBEmA0oz4Bo7V9O8+2rEfH7PJgLAAAAAAAAAADA16lyhbYT3QcA0xNoq7ZuCY/pduX4eqhr+JzRoLcVxYUehdmgpB4ON7YKPYDkm//lGT/1ZjTo+TACAAAAAAAAAACYpWEDn3MlA21JkrQj4oVTFgCmJ9BWUQ+HG2sRsVvCQ+vrHT4nD7MNI6tutGjCbFBua0U++E//9v86jIjfRMTtlD/6ajToee8DAAAAAAAAAABm5bKBz3lY0ePuOl0B4HkE2qrrIIoJBf2Svq7hU0aD3lpEnIcwG/BprQIf+2rl+PpuaefoMiK2IuJqyp9/ORr0zvPrHAAAAAAAAAAAwLOlaXoX069hqrKr/DlXSl6dbdsZCwDPI9BWQXl1toMyDihXjq9v9BAfy0Mew4hYL+K8LOnrBfhQq8DHHo7/srRzdLe0c7QVEW+n/B0vImIo1AYAAAAAAAAAAMxA33Mtva7TFACeT6CtmnajnNXZTnQNXzg3Ngt43KuIaC/tHN3pAii9VoGPff7xf8irOn435e/ZDKE2AAAAAAAAAADg6517ruWVJEkrVGcDgK8i0FZNXQNKqmI06HUj4mUBD30fwmxQJa2CHvd+5fh6+Kn/sbRz1I+I3+bXk0kJtQEAAAAAAAAAAF8lTdObiHjbgKf6Nn+uVdN1lgLA1xFoq5iHw43diFgv4aG9Wzm+FhziA6NBrxMRrwt4aGE2qJ6tgh73i2HspZ2j84hoh1AbAAAAAAAAAACwWN0GPMd+1Q44SZK1iNh1egLA1xFoq56Dkh6X6mx8YDTobUXESVGvk6Wdo0u9AJWyWtDjDn/pG/LryVZEXE3xezcj4jK/FgIAAAAAAAAAAEwlr1z2Y42f4rs0TYcVPO7dKG69GwDUxpImqI6Hw42tiNgu6eEJtPEXeVWifkED9u+Xdo76egEq9f7WLvv719LO0c1o0GtHFoDbnPB3r0dWqa0tZAsAAAAAAAAAADxDN7IA1XrNntd9lLfIxy9Rne1DVxFxF+83l7/M/z12mabpnWYC4GMCbdVS1oHbu5XjawMNnurH5IGPmZ6LSztHXc0PlbNWhfevpZ2juzzU1o+IFxP+2GpEnI8Gva2lnSPvlQAAAAAAAAAAwMTSNL1LkmQ3Iv5Ys6fWzSvQVUqSJGsx+dqxOrqKLLA2jCyoZqN3AJ7tG01QDQ+HG2sR8bKkh6c6G38xGvQOChqs30ZERw9AJW1V5f1raefobmnnaDci3k7xY+NKbWu6GgAAAAAAAAAAmEYeGvquRk/pIk3Tk4oeexOrs73Lz79fp2m6laZpJ03TvjAbAF9LoK06OiU+NoE2IiJiNOhtRcQPRU0SVD+Cyioq0DZ87g8u7Rx1YrpQ22YItQEAAAAAAAAAAM+Qpmk/In6swVO5jWqHwpoSaLuKLMT2qzRNd/MA241XIgCzJNBWHQdlHbCsHF8LERF5SKNf0MP/bmnnyE4PUF2tgt6/vmqCLdQGAAAAAAAAAAAsSpqmBzHdeqWyuY+I3TRNq7zuuF3z0+xdRHybV2LrV7yvACg5gbYKeDjc2I2I9ZIeXl8PketGFtZYtIulnaMTzQ+VVsS1YybvX0JtAAAAAAAAAADAoqRp2olqhtruI6KdpmllixckSdKOiNWanloXkQXZdtM0HXqlAbAIS5qgEjolPjaDFmI06O1GxKuCJji7euDrPZ7utfO/rkXE1if+Prb1jAnZVUQ83aXjLiIuP/H3y+X9M7t5NMzD4Ua7oIc+n9lgaueoMxr0IiJeTvgjm5EF6ly/AAAAAAAAAACAqaRp2kmSZBgRbypyyFcR0alymC3XruHpdJ/3zblXFgCLJtBWcg+HG62IeFHSw7tdOb6+1EvNllcZ6hf08J2lnSMBqAk8nu61IqIVWSBt7cnEansBD/+p6lsvPnOcERG3EXETWdDtLrLg7N3y/pnrTT1tFfCYFyvH1zczHVBNH2p7MRr0+nmFNwAAAAAAAAAAgImladpPkuQmso29y1w17F1kgak6rPXcqtlpVKe+AaCCBNrKr8zVW4a6h8jCbEVMht4t7RzZEeIjj6d746pq7cgCbK1YTGhtltbzr/Fxv86fW0S2U8tNZGG3YajqVgdFTPL7cxlUTR9qezka9G6Wdo66TgMAAAAAAAAAAGAaaZoOkyRpRRZqK9s6wfuI6KZpelKjJm/X6Ll8n6Zp16sIgCIJtJXfQYmPTZio4UaD3m4UU0HwvuSvjYV5PN1rx/sA21ZkQbA628y/XsT7oNttfBhwGzozKqWIQNvc3r+eEWp7nYfa+k4FAAAAAAAAAABgGnl1rXaSJJ2IOIlyVGt7FxEHaZre1KWd8+Dgak2ezndpmva9egAomkBbiT0cbrSj3OGUoV5qrtGgt5ZPforQXdo5umlam+fV19rxPry27UyMiPcV3V7k7RQRcZFfo4YCbqW3ueDHe7dyfD3Xqn55qK01xWv0TR5qc64CwFdKkiTVCo11H9lGFx97Osa6jIi7iLhL0/RSk8HMrr2tyCrER7yvFj82riT/KVux2Bu/Fx/9++7JdePp3y/zm/8YQ5Tdt2ma+iyhfufiMKr/ua+dnet5brYj4g9VO+40TRO9Z5ya/7P90Th07aNvb0X1No28jYibj/7beN5rDkyjrvfMzNWTa8inris34+uOuQgAlHYe3E+S5DwiuhHxqqDDuIisKlsdxwutmjwPYTYASkOgrdw6JT62i3kHAii9bhRzY+dqaefopCmNnFdgG38JsE1uO/96nQfc3kW2kPV8ef/sRvOUQx7cXrRFTcZ383Nu0sDe+WjQay/tHLmpDADwPKufmTN9ch6VJH9Z1zoOuAzjfaBFmAXev1bGi30//nMtFr9BySw+K/jYiy9cI8YL+VwfAADKPV5t5ePU1pO/rzbg6Y83fJx0DjzeCOYm/xpGxE2dqiUAX21zwrn008/WzJ0BoGTy9+GDJElOIlvjubuAOdJ9RJxHxEnNN9Ro1+A5/E6YDYAyEWgrt90SH9tQ9zTXaNDbiuJ28Dioc9vmVdh28692NOOG2yK8yL9+eDzdu80n0P3l/TPhoWJtLfjx7leOr88XMsDaObobDXrtmDzUthoR/TzU5gYPAMDibH/0Z0REJEkyXug3jPcLcW40F3WUJMk4qPbxYuD1hjfN5meuD+NKGMPxNcJCPQCAhYxbtyK7dzYeu25qlamMN4IZj29f5+0akW32cjmeB5v/AjOYO/tsDQAKlr/3dvJ7AJ38a5bzqPv8vf48Is4b8jl5q+LH/y5N0xOvDgDKRKCtpB4ONzpR7iDLUC81WlGD2rdLO0e1O/ceT/dakQXYZj1p5NPWIwtkvno83RvvDnO+vH92rmkWrr3gx+svdJCVhdo6+XvmJO/pm/n52HZqAAAU7uOFfuOFOMPxV813mKSmkiRpxfsFwO1oTvWKWX+usJ5fH8aLgK/i/UI9C4ABAGYzdm3nY9Z2fKZCEDPz8fz39qP5r/EtMK0vfbY2Ds8ONRMAzF8eNDuJiJP8HsHuk7nWNPcHruL9Zm+XDX0vb1X42O8jW58KAKUi0FZeZa7OFivH10Nd1Ex5OKOom0bdurRjiUJsVxEx3h3l8snfP/XvX7IVEWuf+XdZF8itRsTLiHiZh9v6oXLbIi26Qlt/4QOtnaPLJ5XaJnkNbI8GvZOlnaMDpwcAQCnnD+Pqz08X4ZyHBX6UVL4IeBxea4fw2rxs5l8v83a/Gl8fLNADAJh47LoW2b2zXWPXwq3nY9vx+Pb2ydzXBpHAcz39bO31R5tHnftsDQDmL3+/Pcm/xvOw8fqtVv71szWEDam+NolWhY/9QD+yKEmSbOWvl/H1pa1VFupza7+HH70nDDUVpbhmpGmqFUrm4XBjLSL+rsSHeLFyfO3NpYFGg95aZLtsFHED6fulnaNuldvv8XRvfCPuIBYXYrvN+2w8QBlGRCzvnw0LaoPWk8nveMDaivJVprvNJ+7ny/tnN179c3mva0XEnxb4kFcrx9dbRT3fPAz8Zoof+W5p56jvTOEXJv/DqO7OxN+nadrVi5To9dSNvMJKBV2kaWp+9r4vfchBka4i20TBAhyKvA6Ow2u7oYpFWfylOrzFv8YQM/atm43m+ub8LPDcbEfEH6p23GmaJtq93O3/UYjthVeb8S2uOzTaODzbT9PUBrS4hhpLA5TxWl/Ve9G3aZq29CBzel20Irs3Ob5HualVKjsfu8n/Pl5vfpf/XfiNuVKhrZw6JT8+F6XmOohiwmz3ke8KUkWPp3vjG3Ev5/xQF/ng4TIibooKrX1JHg67+Uw7Pd2VYTzALWr3zfWI+CEifng83XsXWdU2N+Vmq73gxyv0GrK0c9QfDXqtmDwscTIa9C6Xdo7crAEAqI7N8Twir87UD+E25uzJAuB2/qcqFuXzl+rw+e7z48V5Q00DADR4HLuoe2fMf3zbD+ETYDbWI+JVRLx6UhnS9QUA4Ot1NQGzlG+w2QkBtrrNx9bzv29/os/Hf72I90G3m4i4cc+TryXQVk6dkh+fC08D5UGMg4Ie/mRp56hS5Y7zSmSd/Gt9Dg9xlQ8IhhFxubx/VvkPcfPncBnZB9NP27Edxe7e8CIiXjye7t1GdlPuZHn/TPntr9de8OMVHkhc2jnqjga9rZhsl9nViDgfDXpbVbv+AQAQER+G2y4iW3zT1yzMgioWlfZ08e/4c4a+4CsA0KBx7EHM794ZxYxvx+GTq4g4MfcFZuTjcJv5MwBQ9Jy2XeHDt5E/s3gNtCK7N3kQPtdpsnHY7cWTcyPifYW3YeSFWczfmJRAW8k8HG60ovxpZbsfNVM3VGf7RY+ne+18wDbrBWVX+Rv9MCKGTQlU5RXd+k/ady3e7zrfXvDAeD2y6lqvH0/33kZENz8+nmeRk/y3K8fXZXnNdPLX8eaE51w/P98BAKiu7YjYTpLkJJ/fWnzD1ITYaukvnzMkSfI2VG0DAOo7lm1Fdp9RReF624yIN0/mvidpmtqwD5j1/PldPn+2KBuAJs6tOlH+Yhm/5DJN0wO9uVDvzM34ymtPO7/2vNQa/MK8bT2eVHfLNycZF24Zqr7N5wi0lU/ZF61flSgUwILk1dmKGoxUojrb4+leJ7KbcbMKWN3nb+LnkQXYbpyJEXmQ7zz/GldwGy/o217gobyMiJePp3sXkQXbhnpncnl4e5FhxNKEYpd2ju5GaQyE4gAAIABJREFUg14nf31PcuP+xWjQO1jaOTpx5gAAVN5qfBhe6Qq28Uue3CSy+LfexlXbVLUAAOo0lm1Fdu/Mgqdmzn0PkiQ5N/cFZuxFRLzIF0aON46yhgmApmjFYtfHUQ9DTcBz5Pcou647fIVxyO1Ffk59sC7e50WMCbSVT6fkxycd20zdAh+7tCGOvFrYQf41i0Vlt/kb9bmA1GTyoN9JRJzk/bHo3eq3I+IPebCtv7x/1tcrE2kv8LGuVo6vS/XetbRzdJmH2n4/4Y/8MBr0hks7R96DAQDqYxxeuYhscZ85IH+RV2Pr5J83rGuRRhlXtejm14a+JgEAKuxPmqDRVp/Mfd9GxIHQCTBD6xHxQ0R0x5UhXWMAAD5pqAmYRpIkW5GtyRVkY9ZWI9+kJD/XrvJrVF/1tmb7RhOUR16xZrPkh+mC0TAFV2d7W8bqbI+ne63H071+RNxEtsPg14TZbiPix4j4zfL+WWt5/+xAmO15lvfP7pb3z/rL+2e7EfGriPguIi4W9PDbEfHm8XTvJq/Wx5ctshppKUOxSztH5/lrf1Lno0FvzakDAFA72xHxhyRJzvPqBTRYkiStJEn6kX3e8EMIszXZemTBtpskSTqaAwCAinsZETdJknTzDTwAZmVcFfLvkiTpu8YAAHPUruJBC4kwqSRJ1vL7lH8MYTYWYzMiXkXEH/N7ol1rJppJoK1cditwjEPd1Djdhj72zzwJsv0pshsvzw2y3UfE24j49kmIzcRhhp6E29oR8euI+D6y8OC8rUcWbLt8PN1r64nCJ/j3kVU9LKWlnaODiLia4tw6ceoAANTWi4j4k4U3zfQkyPa1nzdQP+Ng22WSJG3NAQBAhY1DJ5c2bQDmRHgWAOBDt5qASeTz9JsorvgJrEf2udGfkiQZ+uyoWQTayqVd9gNcOb4WummQgquzXSztHN2UoR0+EWR79nOKiO+W98/WlvfPOiqxLcby/tnN8v5Zd3n/rBUR30bEuwU87GZE/OHxdG8o2Pahh8ONdixucWZ/5fj6ruRNshtZ8G4SL0eD3q6zCACg1sYLbw40Rf19IsgGn7MZqjkCAFAP400bhsa2wByMw7M+XwMAyAJK8Fl5VbZhRLwJG25SHtuRfXZkw5KGWNIE5fBwuLEW2W7cZXalpxqnW+Bj94t+8o+ne628Db5mUdl9/lxOlvfPTBAKlocIh3nfdiLiYM4D8e3Igm3vIuLAORARi61GWvqKZks7RzejQe8gnxROdG0cDXqtpZ2jO6cSAEBtrUbED/muY500TW0uVDP5os1uCLExvRcR8SJJku/TNO1qDgAAKmw7sl23jW2BeXj6+dpBmqZDTQIANNBWHlbi6/TTNO3X7UklSbIb2dpmQTbKaly17SBJkpOIOEnT1LrZGhJoK48qVFyxgKpBRoPeWhS3sOp+aeeosAHg4+neWmRBp68JO11FFmLrO5vKJw+WdR9P907y6283H/zMy4uIePF4uvdjRHSX98+aPKhqL+hx3q0cX99UYjC2c9TPK69NEmxfzSeSKrUBANTfZkT80eK++sh3jzuI7IN3+Bqv8xuNFuUBAFCXse1umqY3mgOYsXHF87f5HNriRwCgSVYj20yErzOs2xPKw0GvdC0VupYJttXYN5qgNNoVOEaBtmY5KPCx+0U98OPp3kFkpZZfx/PCbG8j4tvl/bMtYbbyW94/u1veP+sv75+1IuK7iLid80O+ioibx9O9ThPb++FwoxXZTYNFOKlY83Qiq+g4iRd5AA4AgGZ4nSTJZZIkW5qiuvIdwW9CmI3ZGS/KO9EUAADUYGx7mc+bAObhZUTc5AFaAABopCRJ1vKqfcJsVNE42HbjM6R6EWgrDxXaKJtGBdoeT/d2H0/3biLih3h+kO3Xy/tnneX9s6HTp3qeBNu+jazC3jwHVW8eT/eGj6d7TVuQuqj3uquV4+tKvQ6Xdo7uIgu1TXydzCtpAgDQDONqbQeaolqSJGnlN4bexPOrwMOXvBJ6BQCgBlYj4k2SJP28ujXAPK4zv0+S5Nx1BgCApsnvIw1D1T7qMbd7kyTJ0P3RehBoK4GHw412VGNBi0BbQ4wGvU6B5+Tt0s7Rws61x9O91uPp3jAifh8R61P++H1EfB/vg2w3zp7qW94/Gy7vn23F/Cu2bUfEHx9P904eT/ea8oF5e0GPU8nd6Zd2js4j4t0Ug/K+VywAQOP8YHFfdeQBxMtwY4j524yIod0IAQCogZf52LalKYA5eRFZVUgLHwEAaIQnYbZNrUGNbEe2KXBXU1SbQFs5tCtwjPcrx9d3uqoxitzx/XwRD/J4urf2eLrXjYg/xfQLy8ZBttby/llXkK2enlRsm3ew7VVEXD6e7rXr3J4Phxtrkd0cmLfblePrfoWbqpNfYybxYjTo7Xq1AgA0jsV9JfekKttzq8DDc6hoAQBAXWxGFjZpawpgTtYjW/h4oCkAAKizJ2E29yypq9dJklxaP1FdAm3lUIXF6KqzNcRo0NuKYlP4/Xk/wOPp3m5+Tr9+xo+/jYitPMgm5NkAy/tn/YjYiizEeD+nh1mPiD/UvFrbot7rulVupKWdo7spn8PJaNCzUBEAoHnGi/vsJF0ySZKMP3NQlY2ijEOv5ooAAFTZakT8QRViYM5+sDEMAAB1JcxGg4zXTygQUUECbQXLK9ZUoYTnjd5qjE6Bj327tHM0t/BkXpXtPCJ+H1mAaBpvI+LXy/tnHRXZmmd5/+xuef+sG1mw7d0cH6rO1doWMVC8jwVVeZynpZ2jk4i4mPDb16PYqpoAABRnNbKdpDuaohySJDmJ7DMHN4Uo2mZE3Ai9AgBQA29UUALmzMYwAADUjjAbDbQaEb/3OVL1LGmCwrUrcpw3uqoxOgU+9tyCKI+neweRVT2adnB2ERHd5f2zoVODPMy4mwfO+jF9MHIS42ptP+bnXuUrAebh7RcLeKiTlePrulROPIiIP074va9Hg975PAPBMI8xcJIkXc2AeRnATLxJkiTSNO1rimLkC56GUY1Nq2iO1cgW5B24PgAAUHE/JEmylaZpR1MAczLeGKadpql7rgAAVJowGw3nc6SKEWgrXlVKG/rApgFGg16n4AHMcNa/8PF0rxVZ8Gh7yh+9jSxM1Hdm8LE84Nh6PN3rRsTrOT3Mq4hoP57udZb3z6p+DV5UdbaT2gzQdo4uR4Pej/l5MImTEMagWraf8d4MAHyeUFtB3BCi5FZdHwAAqImX+bi2oymAOc6hh0JtAABUmXuXEBE+R6qUbzRB4doVOc47XdUIhQYsl3aOZlqhLa/KdhnTL5j/PiK2hNn4Jcv7Z92I+E1EXM3pITYjYpify64tX1an6mxj3ciCepPYHg16u16VAACN9iZJko5mWJwkSXbDDSFcHwAAYFFeJknS1wzAHK1GxB/NoQEAqKIkSdYiKwDi3iX4HKkyBNoK9HC40YqI9Soc68rx9VCP1dto0FuLiBcFHsLFrH7R4+ne2uPp3nlE/DDlwOwiIn6zvH/WXd4/E+JkIsv7Z5fL+2dbkQUh52E1In54PN07fzzdW6voe928ry21qs42trRzdBdZqG1SJ16RAACNJ7SyIHk7/z7cEML1AQAAFsliJMAcGgAAPm0YWREFIONzpAoQaCtWWxNQIkVX9hnO4pc8nu7tRsRNTBeguY+I3y3vn7WX988unQo8xwKqtb2IrFrblmvLz9SxOltERCztHJ1ExO2E374+GvS6Xo0AAI1nwc2c5e37Rkvg+gAAAIV4mSTJgWYAzKEBACCTh3aE2eDnhNpKTqCtWO2KHOeFrmqEygfaHk/3TmL63dHfRURref9MZSO+2pNqbT/O6SE2Iwu1dSrULPM+1lpWZ/tId4rvPcgrbgIA0GxvkiTZ0gyzJ8xGTa4PHc0AAEDF/WBcCyxoDu0zNgAASi2fH7/UEvBZL32OVF4CbcXyoQelkIcfXhR5DEs7R8Pn/uzj6V7r8XTvMiJeTfFj9xHx2+X9s93l/bM7ZwGztLx/dhAR3+bn2aytRsSbPMBZag+HG1sx/10/alud7cn1sR+TV/5bjekCcAAA1NfQgpvZEmajRoTaAACoy7jWvBeYN5+xAQBQWvlYVUEP+GU+RyopgbaCPBxurEV1Snte6rHaK7o629Vzf/DxdG83P0eneT1dRFaV7VzXMy/L+2fDiGjF/Kpcvno83Rs+nu6VuRpXZ86/vwnV2cYOpjk3RoNey6sQAKDxViOinySJCr4zIMxGDblpAwBAHQyTJGlpBmCOVvNrjc/YAAAoo34+ZgV+2bm5XfkItBWnXaFjVb3K+ThvzwpN5hWqfj/FYOw+In63vH/WVpWNRVjeP7tb3j9rR8SPc3qI7YgYPp7ulXUBWmfOv7/21dnG8iqW04Qju16BAABEtvlLXzN8nSRJ2iHMRj3ZZR4AgKpbDYuRgMVca4TaAAAolSRJulGd4jpQButh/UTpCLQVx0IByqToCm0303zz4+ne2uPp3jAiXk3xY1cR0V7eP1Nal4Vb3j87iIjvIgtVztpmlDDU9nC4sRvz3fmjSdXZxrpTfO9LVdoAAMi9SJLkQDM8Tx72UeGdulLJEQCAOtiM5t0zAlxrAABosHxDztdaAqb2IkmSXc1QHgJtxWlX6FiHuqu+RoPeVhRfbnbicywP7dxEVplqUj9GFma71OMUZXn/rJ9f+2/n8OtXI+KPj6d7nRI95XkfS2Oqs43lVdqmOX+6XnkAAOR+UIVpennI5zyK/9wE5kklRwAA6uBlkiQdzQC41gAA0BA2W4Dns+FniQi0FcciIsqiDCnjm0m+KQ/rDGPyhWT3EfHd8v7ZwfL+2Z2upmh5qHIrsoqB8/CmDKG2h8ONVkS8mONDNLE621h3iu9VpQ0AgKd8KDu984hY1ww0wIskSbqaAQCAijtJkqSlGYAFXGus+QIAoDD5PZ1NLQHPthoKRpSGQFsBHg43ylARC8baRR/A0s7RzS99z+Pp3klEvJnitXMVWVW2vi6mTJb3z+6W98+2IuLtnB7izePpXtHnfWfOv/+gadXZnlwv+6FKGwAAz7NpfDi5/EbQtpagQV4nSdLWDAAAVNhqqD4MuNYAAFBj+UYuB1oCvtorGyOVg0BbMSq1U8/K8fVQl9Va0YuzLr70Px9P99bycM6rKX7nu8jCbJe6l7Ja3j/rRMSPc/r1LwsOtc1zwnS7cnzdb/jpM83zV6UNAICnXgms/LK8jV5rCZo431TJEQCAittWfRhYgE3XGgAACnISiurArPQ1QfEE2orR0gSUwWjQa5f5+B5P99YiYhgRL6f4se+X9892l/fP7vQwZbe8f3YQEd/N6dcXEmp7ONzozHnCZHeRbFKqzQAAWNR4slHyMM+5lqCh1sONGwAAqu/ADtvAArxOkmRLMwAAsCj5ppwvtATMzLYNgYsn0FYMJz7OxfeGn/qPj6d7W/n/25zw99xHxG+X98+6upUqWd4/60e9Qm2dOf7ui5Xj68YvLF3aObqLiLfT9Mlo0LPDPgAAY5tJktj04PP6YVdDmu1FkiS7mgEAgApbDRs1AIth4ygAAIw/odo6mqBYAm3FsEMPzsUveGaYrb28f2YHdSopD7X9Nj+XZ21hobaHw42tiNie40N0nS3PmpyuhiptAAB8NLbOK5HxRB7isashRPRdIwAAqLjtJEk6mgFwrQEAoA7yceemloCZe5kkSUszFEegbcEeDjfWolq7PN/qtVprl+AYbp7+4/F0rx1ZmG3S18lVRLSW988udSdVlgcy21HtUNs8Q1NvV46vh86UzNLO0WV+/ZtUR6sBAPDEatgw4gN5eMeuhuAaAQBAfdjMBViEE9caAAAWMcfVBDA3CkYUSKBt8apWne1Gl9XTaNBrRTnClX85xx5P9zoR8YcpjutdZJXZ7vQodZAHM9tRwVDbw+FGKyJezunX35uQfdI0/bk+GvQ6mgwAgCde2WnsA92IWNcM8ME1YkszAABQYethQRIwf6uuNQAAzFNenc19TJifjiYojkDb4rU1ASVRqgUpeZjtzRQ/8nZ5/2xXmI26qXCobZ4DupOV4+sbZ8fP9EvURwAAVFNXE0Tkwb5XWgJ+Ph/XBAAAVNyBzVyABV1rVGkDAGBeupoA5mo1D45SAIG2xfMBBmVRmkDbM8Ns3jiorSehtnmYeajt4XBjLea369xtWED3SUs7R3eRVaqc1HZenRMAAP4yP7CwLyKm3ywCmmLbzRsAACpuNSz8m8aNJoBnX2tUaQMAYOaSJNkN1dlgEXY1QTEE2hZvSxPgXHzvz//h3/zPMV2Y7XfCbDRBHmr7bk6//uXj6d4sQ2KdyD6kn4fuyvG1Soyfdz7l97uRAgDAz8bcTX7ySZK0I2LbaQCuEQAA1JbNXCaUpulNRLzVEvAsqrQBADCXcaYmgIV4YU5XDIG2xRNooyxaRR9A+vf3Ef/lP30/xY98t7x/plITjbG8f9aP+YXaXuXVEcs8abpYOb7uOxO+aNpAW0eTAQDwkZcN/2C26xSAL1pXpQ0AAHO/RjmIiCvNAFNTpQ0AgJlKkmQrbMwJi6RKWwEE2hZvVRNQEptFPnj69/fx092/m+ZHvsvDPdAocw61vfnaUNvD4UYn5lfS2gf+v2Bp5+guIt5NMw4ZDXoG3QAAGHuH6mwwha4mAACg4lRpm1Capndpmm5FxPcRca9FYCrubwMAYHwJ1WVtbQGWNMHiPBxutLUCZTAa9AqtFCjMBtNZ3j/rP57utSPi5Rx+/ZvH073L5f2zy2f+fHdOT/vHlePrS70/kfOIeDHF93di+spuAADUWyeaGVjp6nqYyHqSJJ00TfuaAgCAis8BO5phMmmadpMkOYlsMdduTHcvisW6j4hJ7qsOf+H/tz/z320GNLlV82cAAGYhSZK1EK6BRWtrgsUTaFusNU1A089FYTZ4nuX9s87j6d5azOdm0fDxdK89bahtjtXZ7sPC0qn6b8rvfzEa9Nby6m4AUDffagKm1H7y51ZErDa0HRoXVkmSZCssyJrGVUTcPZl/3MVki+XK/Lpfy1/3rZhf5fE66UZEXzMAADUf50ZM/5n7PMeskY9XW/n4dVOXfZWXSZIcpGnq/siE8rbqj+cCeaXz8TxqvInu9oxfj/GFeedN/tU0d2malmIOnp8Dkff/Wn69Mq/+UMf8GQCAGdiN5t67hqKsJknSTtN0qCkWR6BtsbY0ASXRLuJBhdngq3Uiu5E66xuWqxHRz0Nt09zE687peR6sHF+7mTjpYG7n6GY06F1NeV7shhspANSQD5V4hg/OmTzk1M7H3k1bKNi0MeKB0/+z7iOr6nwZEcOyLJqb1+v+yeu/Hdnnt+38y03CD6nSBgBU3cV4jBsRNyUf5w4/9z/yHdq3nny1wmYd084Fu5rhefLP3oZf+p78s5UvbbB7KVRY+XPgZ9epJ9em8Zy6ydel7SRJWmma3jhjAAD4yvkrsHjtKMeGV40h0LZYKrTRWOl/+U/CbPCVlvfP7h5P99qR7Tw464V1m5EtWGxP8s1zrM52sXJ87bU/vWFMt+D6IATaAAB+PnfNFjReRsRJvgDrICJeNuTpv2jKYpt8kdVLZ/wHbvM5Yb+GAbZJX//DfG51kp8nW5GFW3fDTvPmkgBAlce4wzRNz2s0bh1XlBt+NM9phyDJJDoh0Dbvc/RSKzSy3z+4NuWfvbTzOXUTK0vsjj9fAACAaSVJ0gpV2id1G+8red/Ep6t6DzXTX7Tyr7HxpjRbYbPPsbYmWCyBtsVSoY1GXmzT0WP89P/9P9P8yPfCbPBpT0Jtf5zDr99+PN07Wd4/m2R3j+6cnmJHLz/LeUS8muL7N0eDXmtp5+hG0wEAfGYumy3A6iRJ0s3Hv00IQDVlsY15x3tvIwuxDTXFJ68BBxFx8CTg2sRFeB/MJZMkaTtfAIASu48sgN+4jRo+rpyVJMk4RNIOGzQ8pfIwLOaadBfZ/cvzPNy2G9nna025Hh2EQBsAAM+3qwk+cBvZprSX8T60pvr3HOQbJm3F+wrcTfxMSd5nwb7RBMA8paPH+Olv/3VE+tOkP/J2ef+sq+Xg85b3zy4j4rs5/fpXj6d7nS99wxyrs32/cnx9o4ent7RzNDTxBQCY07w2TW/SNO1ExG8i4qrmT7fTkG49aPhpfR8R30fEr9I07QgnTXQduMyvA618Pn7b4OboOCMAgBK6iIjv0jRdS9P0QIWoiDRNz/PxfisifhvZZhb3ThVjWijgenSXpmk/vx41ZU69nlfVAAAA89bpXUV2L/O3kd3PbKVpupumaTefWwyF2eY2fxumaXry5DOl30TEj9Gse6Or5nOLJdC2WNuagJJYzIU2/XNWmW26MFtH98Avy6sYvp3Trz95PN370i4D3XlMQlaOr7t69qtcTPn9bU0GADDFFDcLtGxF9oFtXW3W/cPZvNJWU6sTjINsrfyGjxs9018HmrgI72Mv8931AQDK4G1E/DpN07aKW18cx55/tEHDVcObZNvCJCjsejSeU38f9Q/Z2lwUAICp5fPVzQY+9XeRfWbxqzRNt/J7mefuZxY+h7vMN49qRcS3Mb81y2WjStsCCbTxS4Tw6mn+C7fSP8ef//bfRPz5v076E1fCbDC1g5jPTcfViOg/nu79bIHaHKuzHejOrzbtjrMvRoOeRYgAANNOd9P0IOZXMbkM6r7Ypqlzj7chyDbra8F4Ed7vonmVLizKAwDKML79db5b9I3mmHgMO96gYSuyRUgXDW6OjjMCCr0edSPbfLPOAVtzZwAAjCO/7Day+2y/yiuw9d3HLPU8bphvmPTryAKIdSbQtkACbQvycLjR0go0yU/3/z5i9Djpt1+FSkEwteX9s7vIbrjNY+HcZkScfOK/d+fwWD+uHF8P9ehXe04bupECAPAM+c7/v4l6hljqPkZs2hj4NiK+zRf6ugE0n+vBSWSVLt416GnblAYAKMpFRPxGkG0m49hhmqbtaG6wreMsgMKvQ5eRrROp6w7/2yqcAwDwDO0GPMfbiPguTdNWmqYn7mFWbi53k6bpbmSfKd3W9GkKtC2QQNvitDQBZTAa9OZ+Lv70H/8m0r+fcE1f8s1jROzmwRxgSsv7Z5cxv4VkLx9P9zrjfzwcbnRj9tXZbmM+IbkmunzGz7Q1GwDA8zxZdFO3UFttF9skSbIbWUXqpvgxIrbSNB16xc79enD35MZNE6q1bSZJ0tLzAMAC3UbEb9M0bedzMWY3ln0abLtq0FNfT5LE4iQox3y6E/UNtbX1MgAAU3pR4+d2HxG/y4NsfV1d+fncMLLgVx03/bQ5yQIJtEHztOb6BvX395E+/N3kF6Ff/av/dXn/7Ea3wPMt75/15zgoPHk83dt6ONxYi/kE5zorx9cCrTOwtHN0E9MvnFShDQDga+bA2ULKOo6p2jXtsnZDTs37yBb7HtjRcOHXhGE0p1qb+SQAsCjjjRrONcV8x7Jpmm5FxO+iGZs0RKjSBmW6BnWinqE2wVkAACaWb85ZV+8iopWm6YmertVcbrzp5481e2rbendxBNoWp1XVA3843PABC5O9MY0e46e7fzf5BWjtX0SyvPJPtRzMRCfmU753NSL6kYXZZl3J4MeV4+uhrpupaXemXR0Net7nAQC+Zi6cBVh+V7On1a5pdzUhgHMVEW2LfQu9Joxv3Hxf86fa0dsAwJzZqKGY8exJZAGMiwY8XZs0QLkcRP0qRbZ1KwAAxo/xuzRNd32+U19pmh5ExHdagucQaFucVoWPXdlEJng3+nP89Lf/euJvT1Z+Fck/XK36awNKY3n/7C7mtJgs/S//eTMiXs/4195GRFfPzdzlM36mrdkAAL5yzJwt+KtTRabajRGTJNmKiPWan4rjMNulV2UprgvdiPht1Le6xWaSJC09DQDMcWzbslFDYWPZmzRN21G/zVs+tp7PFYFyXHvG97vrNI+2qz8AANNo1+z53EfEt6qyNWZO148aVWpLkqStVxdjSRMAs/Dnv/03EelPk33zP/hH8c0//e/H/1rXejAby/tnw8fTvR8j4tUsf+9P/2Eehd+is3J8bceN2bt55kTYpBEAYAZj3Hw8tlqD57KZJMlazXbJa9f8/HsbESpXlEyapuf5zY5hTa4Nn3pd9fU0ADDrsW2aph3NUIrx7EmSJMOIOI/63tPdjedtFgjM57pzmSTJScx+s9XCJEmyZfMhAKAgt+Ez/FkYLvCxNmvUbvdhI84mzukO8g0xX2gNJiXQxiRamoAv+ek//k3E6HGyb/6r/yb+6p/9qw/+02jQ21raOTJogdnoRnbzbSY3Fn/6T/eR3v/trI/xx5Xj66GumgsV2gAACpKm6V2SJAcR8aYmT2krFnuDZt7qPO614Lfc14bLGofadsPNcABgtr7Ld3OmXOPZ8fxws4ZPcTeye2tAea473SRJOlGfIG0rBGcBgGLcpGlqvlMRNawGJczWXJ2ox0bALV25GN9ogoXZ8oKkjv2Z/v19pA9/N/lF55/9DxHJXznHYE6W98/u8gHhTPz0N//3rA/xNtwYnKebZ/zM6mjQ29J0AAAzmCNnCy+vavJ02jXrnnZNT7sLYbZKXBsu83Pw3usKAOCzhNnKO569S9N0K7LK0HWzmSTJml6G0unW6Lm4DwsAwCTaNXou3wmzNVeapjNdw1yglt5cDIG2xfEhKLW7wKajx/jp/m8mv+Cs/YtIlpY/9b98gAcztLx/NoyId1/7e366/38j/vPfz/rwOivH13d6aT6Wdo5uTIgBAAp3UJPnUZsxYl5NYLWG59pVZNUEqICahtpW89cXAMDXEmarxpi2E/UMtZlXQfmc12j+bN4MAECTxo3vfMZDmqbnEXGhJZiEQBuTaGsCfv5u8+f46e/+bUT600Tfnvz1P47kH67WfSAGZdKJr/iQP/1pFD/9zZ9mfUzfrxxfD3XN3N02eEIMAFD8dDn9/9m7m9hgOWZQAAAgAElEQVRGzjzP879Hop22WW7JVZ4q11T3iGZPz6B7e0f0zM6hDwvRxwUXSNVp5iKIBvKeMsC9EZv0gtgTgVTetSMm8jK7i4WZwBB9zBAWi57ZxW5Sh5ndrpqmqd2ZsavKVSl1OlyWHalnDxHMVKb1wpcgGfHE9wMkqtIpUYz/EyKfCD6/52+9CedkSePSHNHF+e6RpHK0wx3S8/rQk3uLZcuMLAAAmBJhtnTNaatyL9TGnBZI3mvNscJQmwvYAB0AAACjKDhwDCdyozMX4tGgBBgFgTYAEzk7+Y0UnI72xcuvaWn1vau+giAFELMbtx4cTzMhPPvySHr2LM6ndJhv9Zmgzsdggu8pUzYAAIBY7TpwDCvGGFcW3Lh432GTMFs6RaHXjx06JK4nAQDANAizpXNOW5Vbu2wzpwWSyZVAG+thAAAAMIp1B45hh88vMRR9JnrItRyuQ6ANo9igBE4ZTP0m881T2d+P3vhp6Yc/k8zyVV+yFnSb7EoFxOzGrQe7k0wI7Te+7O++iPOpsPNG8vE6DAAAEK+2I8dR4jgS6eOo0xdSylq7K+mhI4dTZkQBAMCE7hFmS7VNpXtR0nlrxpgCQwok7tq5o/Bz5rRbYTQBAABwFWOMC59lHnGfBxdI8znBeto5IdAGZM9gmm+2z77T2fHoQRfzgx/J5G6M8qVlhgaYiZ1xv+HZb/4m7ufQyLf6LLacH2/C72NHCQAAgJhEO8+5sFu9K3NElzZrehiFoZB+VUlHDhzHCot/AQDABA6stTuUIfXXvVW5ETZx6foXcI0TnzFz3QwAAIBruDBfbDCMuECbEuA6BNowEr9WLFMFSArDbPZstC9+/S0tvf3uqA/NOQbMwI1bDzyNsev72cmvJP9pnE/hYb7VZ7FlOvBhLQAAQLw6DhxD6ncdc2RHwyG6Xzvk3AJgricBAEDWnCjs7oX0z2l7cmfBWpkRBRLJc+Q4CgwlAAAArpD2z1lO5MZn44hZ9HnoIZXAVQi0YVS0TYTO/CfSt1+P9sVmSUur743z8GUqDMzMSLuc2rNAZ7/+LM6feyQWW3JhDAAAkF0u7CDtwrW6S/e0dqKb/nCEtdaTdJ/rSQAAkDGbzGudmtPuig7lAGanRwkAAACQAWn/PLPDvR5cdX5QAlyFQBtGxQ3cjLPBqezf/nrkrzdvvyuz/No4P2I96DYJTgIzcOPWg4Gke9d93bPP/1p69izOH13Nt/pcqKRHgRIAAADEeB0dBlWweGVHjuPAWttmOJ20o3DnSn7PAABAFtzjWslJVQfmtBsMI5BIA0oAAACADEj7Gn0CS7iKRwlwFQJtyMqbJaZ09uTz0b/49be0lH9nkh9TptLAzDR0xYeJZ1+fSE9jzZ59km/1mYguxmDC7+PDWgAAgPgdpfz5uzBHdGXznB1+ndwU7Vi5m/LDKDCSAABgBCcKP6uAe3PagQNzWhljWBMBJO/1xZUObWzuDAAAAJd5lABXoPM2rkSgDaMqUILsvjGcPf1SCk5H+2KzpKXV9yZ9bmWGB5iNG7ceXLpAzp4FOvv8F3H+uIN8q9+g6gszmPQb6ZQJAACQnLkZYuPCgsT7Di3gwsV2le6OFmsMIQAAGMFOFOYHc1quHwFkDa8vAAAAuEqaNxk95H4PrhKdHydUApch0IZRrVMCN+Qq9bEmDjY4lf3qtyN/vXn7XZnl1yZ9epuMEDBTF36YePblkfTdt3H9jBN+l1OND1MAAADw8nV++neod2HThgZnottc6NJGNwsAAHCNI2ttmzIwp024AiMJAAAAAMBYPEqAEbB5Ky6VowQYlV8rlvKtPi8oGXN28usxXlFuaCn/zjQ/bi3oNku5Sp3zDJiBG7ceHJ/ube1KuvP8d/zrE9nffRHnj9nMt/rsuJFeBUoAAEDyGWMK17xvr4qgOuKT9kBY2jdpum+tHXAaZsKupB1JK7xWAAAABzUoQWbmtHdS/PzLDKH7jDGjjDP31pLlSHQGBwAAAJJqQAkwAtYU41IE2jCOkkjIumKkG35n/hPp269HftCld34ax3Mrc54BM/V8gZw9C3T2+S9ie2Dz7s+0/G6BCqcbAwgAwJydC6edXyjz6qKZDSoFZFabEmSDtfbYGNORtJ3SQyiLXTgBAMDF6M6WrTnt/RTPaQuMYjoYY87fOyvpxQYb5/+/xD01AAAAAMm/vkn7Zhqs98ao58lNyoCLEGjDOAqUwBkDXRNos8++k3365eiTqvw7MrkbcTy3qsLADYAZON+l7ezLI+m7b+N54LdXh2G2htjBMs3v1+yoDwDADEQ7PxeiP8OFNSWltwsPsqWklIZURtx1PckOrbUep2Cm7Cq9i38BAAAu06YEmZLmTRroAJWsa/qSvn8vrcA4AQAAAHBM2tfr0XkLwFQItGEcZUrgjGsnEPZvfy3Zs9EezSxp6e0fxfXc1oNus5Cr1AcMEzAzu2dfn9yxv/sinkd77XUt//QfDv+2cbq3Vb5x64FHmRemMMX3ligf5uQTa22DMiApjDENSXeoBGI4lwrR+2kpuoYuiEU2SD82PVjgtRslyBZrbc8Yc5TS9w6uJwEAwGXalCBTc9qOMeZEKd3ExxhTZmORudd8GFYr60VobZ3KAAAAAEAq7gPQoQ3AVAi0YRwblMAZV7butN9+LfvNVyM/2NLKjyWzHOfzqyrs8gRgBoL/53+TlnNfSfrB1A+2vKzln/2ZzNJLU4qGCEEDAIAMiLo/Df/QcQ1A3DqUILPjfjuFz5vwKwAAuMhDa+2AMmSOpys+i0a2RRtClc/9YTMoAAAAAACAjFqiBBiHXyuy064bruzQdnY8Rtem19+SeTP2NZtVhgiYqV09C34QxwMt/fh9mTfyr/7njdO9rTJlTiXe5wEAuIIxpmyMaRhjesYYK+mRwu5+GyLMBjC/jddDa+0xQ5hJaQ0yEmgDAAAX8SgB454yZYYvfsaYTWPMrjFmIOkzSfuStkWYDQAAAAAAINMItM3PwJHjYKG7Gy5t8Xr29Evp2Xejv4i8/aNZPL+1oNvkXANmwK8VNxV+QDQ188P3tLTyk8v+uUG1U4mF+AAAnJ/vGLNqjKkaYzrGmGO9CLCtUx0gFdIcsPEYvmyy1qZ17HlvBAAAF6HrcDb1KAGiEFs7uqf2qcJO1ATYAAAAAAAA8ByBtvkZOHIcZYbSCRfv8G2fyfpPRn4Q8+aKzOtvzeo57jBMQLz8WnFVUjuWB8u/reUf//FVX0GXNt6rAQBIpfMhNklPFO4YfVMEv5FdbDizGCz8zbYDSgAAABxwZK0dUIbsSfEmDRKfsUzFGFN6JcS2Le6pAQAAAAAA4BIE2jCuMiVIv1ylfuGueGcnv5Hs2ciPY2bTnW1oM+g2VxktIFYdxfGh0Wuva/lnfzbKV1YpefoE3WaBKgAAssgYUzbGtBVuSDMMsQFId5eztGLhL+hoAQAAmNMg9dc1lCA7os2hepIeixAbAAAAAAAARkSgDeNa82vFAmVwwuH5v9jgVPb3JyN/s8m/I7P82iyf34qkTYYJiIdfKzYkbUz9QMvLWv7Zn8ks5Ub56u3TvS3eM+avsODvBwAgNc51YxtIeiQW3ABIBo8SZB6LvwEAAHMapN0gpc+bLuVjOHdfbV/SOhUBAAAAAAAXYBNdXIpA2/y4dMO+zHA6YXD+L2cnvx79O82SlmbbnW2owTAB0/NrxZKkO7FMHH78vswbeX6Pk22NEgAAcM0lTRhka+hFNzbePwEkCQt/MUjp+2uZoQMAAMxrkXJsdDTa3P98kI37agAAAACQ3evDAlXACNhACJci0DY/xw4dS5nhdMLzD5Hst19L3349+gQk/45klufxHNeCbpPzDZiCXyuuSurEcvHx7s+0tPKTcb9t83Rvi90V5iToNqk1AABXzWdeDrLdEYuUACQTC38xoAQAAMABx5SA6xq4xRhTNsb0RJANAAAAABAqUAKMgEAbLkWgDZMoUwInPP8QYezubD94Z57Pc4ehAqbSVgwfKJmVd7X87kTXHiuSqgwDE38AABaJIBuAlGHhZ8ZZawdUAQAAMK9FyqU20Ejn4QtrsmqMaUt6JGmdigAAAAAAIqxXxJWMMSWlc43OgNGbDwJtc5Jv9T2HDmfNrxV5A0q/niTZ359Iwenobyzz6842dDPoNgsMFzA+v1bckXRz6gd6400t/eSPp3kEgqlcIAIAsDDGmM3o+ocgG4BUsNbSyQIAAADMawEkQhTwG0japhoAAAAAgFewXhHXqab0eQ8Yuvkg0IZJlSlBuuUq9YGkk7Onvx39m+bfnW2owYgB44mCx3enfqDlZS3/vX8ks5Sb5lHWTve2NhmVuShQAgAAossXYwrGGE/Sp4qhYy0AzMkBJQAAAAAAJIExZldhVzY2iQIAAAAAXKRMCXAN1g7jSgTa5uuIFxckyZn/u76efTfy1y+gO9vQNl3agNH5teKqJG/qB1pe1vIf/efThtmGqozMXLDjCQAAkowxOwq7sm1QDQAAAAAAAIyhkPUCGGNWo42ibnM6AAAAAACusGaMYc0iLmSM2RQbUOMaBNrma+DQsWxEgQmkmH362+Lo7yoL68421GDEgJF1FMNOiUvv/YnMG/m4ntPN072tAkMzc1wcAgAyLVps01HYqZadowEAAAAAADCuQpYPPlqI6ImNogAAAAAAo6lSAlxiJ8XPfcDwzQeBNk7sadClLcVO97aqsmcjL/A0b7y9qO5sQ3RpA0bg14q7iuEDpqWf/n0tvf0j3jdSJHqNZOE+ACCzosU2PUk3qQaAFOtRAgAAAADAIpwLs61TDQAAAADAiKqUAK8yxlSV7s1yBozifBBo48SeBsGEdGuM9cYSf7Bl5s8ZyBq/VqxKuj31RPKH72lp5SezeIo7jNJM0Z0NAJBZ0Y2wx5LWqAaAlDumBAAAAACAeTsXZmPzRAAAAADAOFaiNRuAJMkYsyppl0pgFATa5su1HZZv+rXiKsOaPqd7W1WNsdDTvLkis/xaEp46XdqAS/i1YimOCaD5gx9+tfzjP57V01w73dsidDU7ZUoAAMgiY0xD0j6VAAAAAAAAAMZHmA0AAAAAMKVGFGICJKmjlN9jsNZ6DON8EGibLxd3WKZLWzqN1SXJvPUHSXruJLaBV0Th4jgmgIfLf/dP/4cZP90qIzYzZUoAAMgaY0xb0h0qAQAAAAAAAIzPGFMQYTYAAAAAwHTWJDUoA6J1PBtUAqMi0DZH+Vbfc/CwCLSlzOneVlnS+sjfkLsh8/pbSTqEm0G3WWYkgZd4GqPr4iUOFQaiZv1eVWW44hd0m6tjvbYDAOCA6CbYNpUAAAAAAAAAxhftnp/6XdMBAAAAAIlw2xhTpgzZ5dA6nkNGc34ItM3fkWPHczPqDIT0aIz1IvGDd5J4DHRpAyJ+rdjW9EGmI0nlfKt/fOPWg86Mn/LK6d4WYej4xXkheEw5AQBJR5gNAAAAAAAAM1LO0LG2xYaJAAAAAID4dIwxJcqQPY6t42EN7RwRaJu/gYPHRDAhJU73tkoap42nWZJ5M5Gbsa0H3WaVEUXW+bXiTgwTwBNJm/lW//wE7CHvG6lTjuuBcpV6j3ICAJKMMBsAAAAAAAAwHWNMQ9JNKgEAAAAAiNGKwlBbgVJkgzFm1RjTkVvreDxGdn4ItHGCx2GHYXVzrMxbK0k+lt2g26Q7IDLLrxU3Jd2d8mFOFHZm6835vYpAGzUFAGAixpiqCLMBAAAAAAAAE4t2y79DJQAAAAAAM7AmqUenNvcZY8qSenJvw5wBozs/BNo4weOw7teKBYY22U73tlY15sJPk38nyYe0IqnByCKL/FqxJKkdw0NdFGaTZh9oWznd2yKAFZOg2yxFF4EAADgtuhG2TyUAAAAAAACAyRhjViV1qAQAAAAAYIZWJHnRpsVwTNSVrS3pkdxcuzpglOeHQNv89Rw9Lrq0uTZGr78ls/xa0o/pdtBtlhlaZIlfK64qDJxN20Lxo0vCbLpx60FP0tGMD4VAW3zifB08oJwAgCQyxhTEQhsAAAAAAABgWg2xUSIAAAAAYPZWJO0bYzrRmg+kXBRkaygMfG27epzWWo/Rnh8CbXN2WXjAAVVG160xWnrrD9JyXLsMLbIi5jBb+5qvmfWErMyI8h4MAMAY2jHMgQAAAAAAAIDMMsaUJN2mEgAAAACAObopqWeMaURdw5EyxpiCMWZXYZDtjtxev3PIiM8XgbbFcLH7yYpfK1YZ2mQ63dva1Di7rJklmTd+kJbDWw+6zQajjIzwJK1P+RijhNmk2XcUXTvd2yoxpNMJus1CDOfEeQOqCgBImmh3pw0qAQAAAAAAAEyFzWIBAAAAAIuwojAI9cQY0442XEGCRd3YqsYYT9JnCjfIycJG1D1Gf74ItHGix6nK0LoxNuaNtyWznKbjuxN0m0xu4DS/VmxrfmE2afYd2iRpk5Gd2k7MjzegpACAJIluYt6hEgAAAAAAAMDkjDGbYtMoAAAAAMDibUt6bIwZGGN2o+tVJIAxphx10vMkPZG0r+zdS/A4E+aLQNtiuBpo2/BrRUJFCXO6t1VQ2K519DekN/JpPNQ2ow1XRWG27Skf5v4YYTbduPWgJ+lkxofGhUjyanhMSQEACcOu0QAAAAAAAMD0uM8GAAAAAEiSNYVdvz41xlhjTC/q3taIglVkEmbEGFOKarwThQo9Y4yV9EjhptNZ3hDH4wyZrxwl4ESP2Y7o1JY0442HWQo7tKXPetBtNnKVeoMhh0v8WnFH8YTZJnlt7s14Yrp+ure1euPWA0JUEwi6zXJ0URcn2iUDABLDGFMVu0YDAAAAAAAAU4nus61RCQAAAABAgq1Hf6QwVCVjzPDfTsTaxmmVJK1QhisdWWsHlGG+CLQtQL7VH/i14pHcvGG47deKO/lWn3BCclTH+WJz461fSfpJSo/1TtBterlK3WPY4QK/VqxKujvlw0waZpPCAPasF5GXJXUY7dm/vo+IyTgAIBGMMati12gAAAAAAAAgDg1KAAAAAABIsRWxITJmz6ME87dECTjhZ2CH4U2G072tssYNTi6//j+l/LDbQbe5yugj7aIw2/6UDzNNmE2az44Wm4z2+IJus6DpO/d9T65SH1BdAECCrivZGQoAAAAAAACYgjFmU3RnAwAAAAAAuA7NORaAQNvieA4f245fKxIoSobqmF9/svQHf+e/VdiaNa3WJLUZeqSZXytuavFhNmk+gbYyIz6X1/dRHFBWAEASRN3Z2CgFAAAAAAAAmB732QAAAAAAAK7nUYL5I9DGCT8LK5rNQnuMb9zOR51cpX6s9CeMbwbdJjfmkUp+rVjS9KHMOMJsunHrwUCzD7iune5tFRj5sc3iNW5AWQEACXqfozsbAAAAAAAAMAVjTEnSBpUAAAAAAAC40kNr7TFlmD8CbQuSb/UHko4cPkTCRAt2ure1qfEXgQ6DbLsOlOBu0G2WOBOQJlGYzdN0C7hjCbOdQ5e2hAm6zapms8h/QHUBAFxPAgAAAAAAAM7gPhsAAAAAAMD1OpRgMQi0LZbn8LGt+bVilSFeqHG7s+nGrQcdScpV6j1Jhy68uQTd5iqnAtIgoWE2iUBbEjWYlwAAXGWMqYrubAAAAAAAAEAcNikBAAAAAADAlU5EoG1hCLQtlusnfoMhXozTva1VSdtjftvDV/7uQpe2Nd5gkAYJDrNJ8+naRTfFEUXd2dZm9PA9KgwASAB2jQYAAAAAAACmxMZRAAAAAAAAI+lYa48pw2IQaFssz/HjW/NrRRYjLsbmtOdjrlJvK0wcp91G0G3uckogqRIeZpPmE3Jaj4K4uF5jRo97lKvUmZADABbKGFOQtE4lAAAAAAAAgKnRnQ0AAAAAAOB6bUqwOATaFijf6h/r+12xXNPwa0VCCvNXnuB7Lupk5koQ7HbU1QhIlJjCbJ/MMMwmzadDm0SXtmvRnQ0AkAFsiAIAAAAAAABMyRizKukmlQAAAAAAALjSkbXWowyLQ6Bt8Vz/BVgRixIXYdzd1o5u3HowuOC/tx2qyX7QbRKYQWLEFGb7KN/qN2b5PC95bZiFMmfFtWY51kzIAQBpvI4BAAAAAAAA8H3cZwMAAAAAALhegxIsFoG2xetk4Bh36NI2P6d7W5saPyDjXfQfc5X6QNJ9h8rjBd1mgbMEixZjmK09p6d8OIefQeD0CkG3uaPZdWe79H0AAIB5McaUZvxeBwAAAAAAAGRFmRIAAAAAAABc6cRa26YMi0WgbcHyrf5A8wkKLNKKpF1Ge24m2W3Nu+LfGo6di52g2yRgiYVJYZhNko7n8DMItF0ies2a5WvxSa5S71FpAEAKr2MAAAAAAAAAfB/32gAAAAAAAK5GviUBCLQlQzsDx7jt14oFhnouyhN8j3fZPzjYpW1dYac2Qm2YuxjCbCeSfj7nMJskzSPstHa6t8Xv5cUami4AOfF7AAAAc8QiGwAAAAAAAGBKxpiyZvu5EgAAAAAAQNqdiEBbIuQoQSJ0JN3NwHG2NVnYCiM63dsqSVob89uObtx6MBhh7LYdKtV69CZU5azBvPi1YlXS/pSTp3K+1V9EJ63jOf2cYeAPkaDbLEm6PeMfQ80BAAtljFmN5uiYzJGkAWUYyQYlAAAAAAAAjitTgqkcUIIrcX8NAAAAAOCChrX2mDIsHoG2BMi3+gO/VjyU+wv4NvxacTPf6ncY9ZkpT/A93rUvFJW6F3SbB3Lr5uR20G0qV6lXOW0waykPs0kE2hZpHjtAUHMAQBqvY7JgGFTrRfOx4Xv2wFo7oDzTMcaUJK1Gc9BC9L8syAEAAAAAAGlXpgQvefUe20AvNofqsXhtcq/cX1uNzr2S6BAIAAAAAEj4vQJrLd3ZEoJAW3LsarqwQ2qO068VvXyrz03B2dic4HtGDcg0JD1yrF6E2jBzMYTZDiVVFxhmG+d1YloFzpgXgm5zR7NfVH2Uq9R7VBsAsGBlSiAp3P3Zi/6wmGbGrLXDOZB3/r9HC3HK5/6wAAcAAAAAAKRJljfsOVJ0b03h/TWP02F2rri/VtDL99fWqBYAAAAAIEGqlCA5lihBYmSla9mapB2Ge2YmuTntjfJFuUrdk/TQwZptR6ERIHZ+rThtWPlQi+3MNm8lzppQ0G0WFAaJZ82j2gAA5gALcyTpnqSfW2uNtbZsrW1Yaz3CbItjre1Za3ettZvW2lVJP5d0n8oAAAAAAICkM8aUM3jYDyV9LOl9a23BWluN7u14nBGLYa0dWGvb0VgUJH0QjdER1QEAAAAALNhD7hkkC4G2hIg6lmVlgdQdv1YktBCz072t8iTfd+PWg3GCMq4Gv+4G3WaVswhx8mvFtqTb00yaFIbZkrCYeTCnn8N7wwttzacbSIdSAwASIGu7Rt9XGGIrWGt3rLW8HyeYtbZjra1KekcsvAEAAAAAAMlWzshxHim8T/NOtCnRrrV2wPAn07kNpAqSPhSbRwEAAAAAFuNEdGdLHAJtyZKlRWy7DHfsyhN8z8E4X5yr1Ady9+biPqE2xMGvFVf9WrEjaXuKh7mfb/U3ExJm041bDwZz+lErnEFS1DVyHgv7T3KVOgvoAQALZYzJSqD9RGE3tvejnYl5D04Za+3xuYU3H4lgGwAAAAAASB7X77UdSPow2ihq11p7zJCni7XWizaPel8E2wAAAAAA81XlXkLyEGhLkHyr31F2FkRt+LXiDqMeq/IE39Ob4HsaDteQUBum4teKq5I8STeneJhP8q1+Zs/DSbtNuiLoNgtzfJ31+K0FACRAIQPHeF9SKerGNmDI089a246CbZ8oDCsCAAAAAAAkQdnR4zpSGGQrW2s9hjn9rLWDc8G2AyoCAAAAAJix+2w+nUwE2pKnnaFjbfi1YoEhj80k3XzGDrRFXdo+cbiOhNowEb9WLEW/U+tTPMxH+Va/kfFSrmb8+DuaX6c6JucAgCRwedfo4UKbKkE2N1lrG9E5fEg1AAAAAADAIhljCprfZ0zz9EnUkc1jlN0TBdvKkj4SG0cBAAAAAGbjUBKNmBKKQFvy7GboWFeUrQDfzEzR0WgwxXnq8s3E/aDbbHBmYVRRmM2TtDbhQ5xI+jDf6if5NXFei3RLWT2Pgm5zV9MFIsc95wi0AQCSoODocQ27snkMsduiRTclSfeoBgAAAAAAWKCCY8dzonCzqAZD6z5rbVtsHAUAAAAAiN+JpKq19phSJBOBtoTJt/rHChe+ZcWGXys2GPmplSf5phu3HniTfF+uUj+W+0nlO0G32ebUwnX8WrEq6bEm3/HwSFI53+p7CT/UeU3mMtmhLeg2NyXdnuOP7ESv5QAALFrBwWP6JOrKxntthlhrdxTuJA0AAAAAALAIZYeO5UhSmc2issVaO4jOY0JtAAAAAIC4bFpre5QhuQi0JVM7Y8d7J+puhMlNUr+jaX5grlJvy/0biduE2nCVKJC7P8VDHEoq5Vt9JkvTvZ6lWtBtlhbw3k93NgBAUhQcO56P2DU6u6KdpAm1AQAAAACARXDlM7YjSSUWm2VTtElYWYTaAAAAAADT+4jNcpKPQFsCRV16DjJ22G2/Vlxl9CdWnuB7BjH83J0M1HY76DbbQbfJ+Ynn/Fpx1a8V25LuTPEw9xV2ZqNzx8sy9bsWvba0NXmHv0kc5Sp1Am0AgKRYc+hY7kWBJmRYdA58TCUAAAAAAMCcFRw4hhOFO6fz+WmGEWoDAAAAAMTgI9bwpAOBtuTazdjxrmfwmGNxurdV0GRBCG/an52r1D2FoRzXbUvyCLVBkvxasRD9/mxP8TCf5Fv9KmG2S98PsqS9gGMmzAYAQPwOrLU7lAGSZK3dlfSQSgAAAAAAgDly4TO2Kp3ZID0PtVUVhhwBAAAAABgHYbYUIdCWUPlWvyPpKGOHve3XipuM/thKE35fXEGaHWXjJuK6wlBbiVMuu/xasSSpp8k/EDqR9FG+1W9QTQTd5q6kmwv40SqIlioAACAASURBVATIAQCJYIwpO3IoJ5K4lsWrqsrefR0AAAAAALAAxpiCA4dxz1rLpox4Lgo38rkmAAAAAGAchNlShkBbsjUyeMztKDCC0U1ar1h2NstV6scKQ21ZQKgtw/xasSrpsSbriCiFi1nL+VafidI1os6TTgu6zaqk2wv40Qe5Sn3AWQYAQLzX7tGOwcBz0TlB1z4AAAAAADAPhZQ//xNlc30MrmGtbYhNowAAAAAAoyHMlkIE2hIsCj1k7cbMisJQ2ypnwMjKE37fIK4nkKvU25IOMnSOPo7CKMgIv1ZsS9qf4iEOJZXyrX6Pao6k4PLBBd3m5pTn0zSYrAMAEK8jay27BONC0a7iB1QCADAj3EMHAADAUNo3ZGXDKFx5flACAAAAAMAVTiR9QJgtnQi0JV8jg8e8LokFgaOb6Ob0jVsPBjE/j2r0hpAV+0G3yXnqOL9WLPi1Yk/S9hQPcz/f6pfyrT4fwkBRh8dFTZqPogAyAACID9cE4BwBACxKiRIAAAAgkubNDk7Ehoy4WkfZWosCAAAAABjdoaSStZaGIylFoC3hMtqlTZK2/VpxhzPgaqd7W6sKO4aNK/abfblKfaDsBTBvB91mJ+g22Q3ZQX6tWJbUUxiyndRH+Va/SjXHVnDxoKIwmzfh63Yc2pxaAICEKTtwDLy/4kpRl7YjKgEAADKE++VcvwEA5i/Nmx206c6Gq0TnR4dKAAAAAABecc9aW7LWDihFehFoS4dGRo/7bhQoweUmvTE9kxRyrlLflXSQsTG4KcmLgipwhF8rNiQ90uTBoxNJH0ShZIyv4NoBJSDMdiK6gwAAELeHLLbBiFhwAwCYhTIlQEJxrxwAgPlLc6Ccz68wCo8SAAAAAAAiR5I+tNbSPMkBBNpSIMNd2iSp49eKfPh5uSTWpqoZdIBLuHWFobZNTsl082vFVb9W9CTdmeJhDiQV8q0+7WshKRFhNklq5yp1FtwDABAvjxJgRATaAACzQBcsAPNUpgQAkGhpXVNxyC7qGJFHCQAAAAAAku5JKllruU50BIG29MhqgnRFUtuvFflw/mKFCb9vZi/iuUp9kNHzdUXSp0G3yQ5yKRV1hBxI2phmopRv9cv5Vp/gECQlJswmsbslAACzwAYGGAk3UgEAM7JOCZBQfJ7jpgIlAIBEW0np8/YYOoyC4CMAAAAAZN6hoq5s1lrWaDuEQFtK5Fv9jsKuP1m0Lskj1HahRO60lqvU25IeZnRMbgfdZi/oNgucnunh14oNSY80+Yc9J5J+nm/1aV+L5xIUZrsfhY0BAECMCClhTIeUAAAQN2NMmSoggQhbuvdasyppjUoAQKJfp9PKYwQxhiNKgIQbUAIAAABgJteCH1lr6crmKAJt6dLI8LGvi+4yFykk+LlVFYZ8snq+9oJuc5NTNNn8WnHVrxU9SXemeJhDSeUoeOyyeQZoy2kvVoLCbFmfPwAAACQFO4QBAGahRAmc48TGfsaYAkPJa00CsOgdAK/Tyddj+DCGASVAktFJEAAAAIjVMMhWsNa2KYe7CLSlSL7V9yTdz3AJtv1akRekl026I6Y36yeWq9SPJWU50LUi6dOg29wNuk26CyaQXytuKrzpvTHFw9xXGGbrZeScxggSFmajOxsAALNxQAkwJuZkAIBZKFMC57jS3YywJa81zMEBANci/AEAAAAAAF5BkC1jCLSlT0PZ7XolhaG2BqeBdLq3lfgPhHOVuifpk4wP1W1JXhRwQQJEXdl2JX2qyQNHJ5I+yrf61XyrT6cFPBd0m1UlJ8w2nDcAAABg8QaUAAAwA2VK4A7HuppxbvJaAwCYn7RursqGUQAAAAAAYOihpA8JsmUPgbaUybf6A0m7GS/DHb9WrHI2pOPGdK5Sb4ib0euSHgfd5g6n7WL5tWJJUk9h0HBShwq7sjFhwkuiMNu+khNmu0d3NgAAAAAAnLZijClTBme4tCnaJsPpBmPMqqQNKgEAzCEAACM5cuhagPcXAAAAzGP+/LGk9621m9Zaj5JkD4G2FMq3+g2XLoAntE+oLVU3pjeV7c6CQ3eDbtMLus0CpZi/qLvjY0lrUzzMfYVhtl6WapeGjpCLFnSbuwrDbElxIrqzAQAAAACQBQSH3FF26FjWHOs4x2tMOvUYPgDgdRoA5mzg0LGsMpwAAACYgUNJ9yR9EHVj27XWDihLdhFoS68qJch8qG3iGwc3bj3w5vlEc5X6sdz6MH4aG5J6dGubH79WLPm1Yk/SnSke5kTSz/OtfjXf6h/zeoOhoNtcDbrNjqbr+jcLu9FrLwAAAJhTAwDcRqDNHWXOTTCOseL+KADwOg0A4BoVAAAAi3Ui6aFedGIrWWt3rLVsdANJBNpSK9/qewo7BWVdlkNtqeqYlKvUe9GbEaQV0a1tLvxacUeSJ2l9ioc5lFTKt/odKorzgm6zFJ1fNxP21I4k7TJCAAAAXMMDAEZ2kOLnvmaMKTOE6RZ1M1t37LDY1C395+WqknfvcxwEJQAAADBvLi3K5Z42AAAAJnGkFwG2D6y1q9baTTqx4TIE2tJtR2FqNeuyGmpL3e7uuUp9VwQxzxt2a2tQinj5tWLBrxU9SXcVBggn9Um+1S/lW/2sT6LKnFUvC7rNTU0flpyVBt3ZAAAAAADIlColSD0Xu5kRtuS1ZdHY4RdAVvB+CwDJ4dLn9Ly/AAAA4DoHCnMBn0j6UNI71trCuQAb92hxLQJtKZZv9Y/FB9VDWQy1rab0ee8o7HiF0IqkO0G32Yu6PWFKfq3YkPSZwsDgpI4kfZhv9RtUFK+KQqifarqw5MwuEHKVeptRAgAA4BoeADCWtC842446fCG9qhwXEijtXfbY9AsAAADz5tKC3RVjDOuYAAAAsutIYWDtQNI9haG1j/QiuGastWVrbdVa27DWetZa7slibDlKkG75Vr/j14oPJd2kGtr3a0XlW/12Ro53PY1POlepHwfdZlnSQMkMgyxyPB8H3eY90V1pIn6tWJLUjuF346GkahQaRqhACaSg21yV1NF0YclZ22GkAAAAuIYHAIytp/TfY69KajCU6RN1MXN1rrBtjGlYaweMdOrOy6qktTQfA7v/AgAAYAFcW2dSFWsQAADAaD6hBKnSu2Tu2iOUhnkj0ObOxeNAhIOkMNRWzrf6VUqR4BeeF6E2j/P2e25Lqgbd5g5dlkbj14qrCm+g3ZnyoU4UBtk6VPV7ClkvQPSa1Un4a9YnuUqdRRoAAAAJQ8ccAEgFFz6c2zHG7PJBYypVHT++hujUxnk5f0cMIQAAABbAtc/rqyLQBgAARmCtbVAFAJNYogTpF3UR2qQSz237tWLb5QM83dtaTfsxRKELbnpcbEXSftBtekG3WaIcl/NrxbLCG4LThtkOJJUIs12qkOWDD7rNXUmPlOww25GkXU5VAACAROK6DgCSz4UFZyvifmvqRMH3bccPc5uAf+rOy7KkjZQfxoCRBADAOdxjQ+I5uMnMStS9GQAAzI4TgXhjzCpDCWASBNockW/1PUn3qMRz236t6EWdm1zkxI26qAPZx5yul9qQ9DjoNttBt8lk7xy/Vlz1a8WOwpDR2hQPdSLp43yrX863+gMqe6m1LB500G2Wgm6zp7BzYtJVc5U6O7ADAABwDQ8AmMzAkePYITiUOlnZoKjNUDNec+YxjAAAOGeFEiAlDhw7ngZDCgDA7DgUiOczcQATIdDmkHyrvyPpkEo8tyHJ5VCbE3KV+q6k+1TiStuSBkG32SDYJvm14o7CRUY3p3yoYVc2ulpd4XRvK5MXGkG32ZD0WNJ6Cp7uvVyl7nG2AgAAJFaZEgBAsllrBwo3Pkq7FbHQLDWiLlg3M3K4G8aYTUY9FefljtzY4GzAaAJA4rGOA+PMUQpUAcxFF2aNLm0AAGAEzNkBTIRAm3uqcuOD97isSxr4tSLJ7wTLVepVEWq7zoqkO5J6QbdZzWIB/Fqx7NeKPUl3Nd3ua3RlG88iPkxaWBvtc13Z7qRkfI7EQjUAQHp5lACuM8asKtxwBwCQfD1HjmM7Ckoh+doZO97daG6EZM9dG7ymAwDmhDUc4HyBq1yci3I9BwDAbLnQzKbAMAKYBIE2x+Rb/Z6kHSrxkhWFndqqlCLR6DA4mjVJ+0G3OQi6zXIWDtivFVf9WrEt6ZGm75ZFV7bxLeI8m3sb7aDbXE1ZV7ahaq5SP+Y0BQBg7gqUACOiEwkApIfn0LG0WWiWbMaYhtzogjWONbExU+JfOzTdZnKJYa0l0AYAyVegBBhDmRIgRVyci9IRHgCA2XJh/R9zdgATIdDmoHyr35Z0j0p878J6368VXQmxOPfGHwUyyiLUNqo1SY+CbtNzOdjm14oNSQNJ21M+FF3ZJldw/QCj36E0dWUbuper1D1OUQAAFjYfB0ZBoA0A0sOlBWcEhxIs6qB3J6OHf9sYw/womeflpqSbjhzOASMKAOmYs7IJA8bAHBJp4urmClzPAQAwOy4E2jYYRgCTINDmqHyrT7erSy6u/VrR82tFbowmEKG2iSeBzgXb/Fpx068VBwoXdky7Iyxd2aZTcPXAgm6zEHSbHYXd/9K2KP1QLEwDAGChjDEFqoARzpGbVAIAUsNz7HhuG2OqDGvi5gerkjoZL0ObuXQiz8u2Q4dEdzYAWTNI8XMvM3wYYa5SEhuMIUWstcdyd90THeEBAJgNJ+5nEX4HMAkCbW4rK+xKhJdtSOr5tWIpqwU43dsqJ/W5nQu1ce6Of16nPtjm14olv1b0JH2q6W9K05UtvnNr3mY6XkG3uRp0m43oQjCNC4xPJFWj10sAANIs7e9lJYYQ16hSAgBID0cXnO1Giz+RHJ6m38Ar7VYkdVgEmSgdx85LjyEFkDGDFD/3MsOHEVQpAVLI1U0WViR5XM8BAMB13SUItAEYG4E2h+VbfYJBl1uT9NivFXcoRfIQaptKKoNtfq1Y8GvFtqTHiidA9VB0ZZva6d5WwbULtKDbrCq8eRxH979F2clV6uwyDABIPWtt2t/PyowiLhN9oM89BwBIH8+x4yE4lKz5QVvSOpWQojpw7zYZ5+WuFrOpGa/lAACJoBKun6uscp6AOSnXcwAAZMDAkePY5vMIAOMi0Oa4fKvfEwuornLXrxU7fq3IG2jCRGGNsgi1Tep8sK2a1Cfp14qrfq3YUBgw2o7hIY8k/Tzf6m/SlS0WzuzgHXSb5aDb9CTta/ruf4t0P1eptzk1AQBIBHYXw1V2RPcVAEgjz8FjWhO7py9cFGbbphIv2Y7qgsWdl1VJtx07rMOo4yYAIB1Wovcj4DLcY0Naub5BLddzAADEyFrrOTaHB4CREWjLgHyr35b0CZW41E1JPb9WLFOKZCHUFosNSftBtzlIUrDtXJBtoPg6Zd1T2JWtw7DHZlGBttgWHJwLsj1S+ncaPuSCDwDgoDTP9deMMYTa8D3GmEJ0nQMASBlrrav3ldZFqG2Rc4O2CLNdZtsYw/2uxZyXVYWbf7nGY3QBZNAg5c+/yhDikvlKSdxjQ0pZa3sKN2R2/XquzWgDABAbV+YOO3wWAWAcBNoyIt/qNyTdpxKXWpP0yK8Vs9ISPTVdlwi1xXqO7wfd5nHQbTaCbnNhE0a/Vqwq3I0qriDboaQP8q3+Tr7VZ+fVeJUX8UNv3How9W5lQbdZCLrNttwIsil6DazmKnXOcQCAa9K+SymLb3GRNiUAgFR76OhxEWpbAMJsI7lLZ5a5n5clSa5+HsaGdwCyaJDy57/BplG4RJsSIOW8DBwjoTYAAOLjSofXFbGOAsAYCLRlSL7Vr0o6oBJXuu3Xij2/Viw5fpypWrRAqC32yeIdSU+CbrMddJtzO9f9WrHq14oDhbu+rsXwkCeSPs63+qV8q99jaGcida+F54Jsn8mtxULV6LUQAAAky4YxpkwZMGSMaciNDRUAIMtcDkMQapvfnGDVGNMRYbZR7dOpbW7nZknhwtoVBw/vxFrrMcoAkEq7zFHxypylHV2/AGmWlbnptjGGew0AAEzPpbWBd6L7kABwLQJt2bOpsJsRLrcu6bFfKzYoRXIQapuJbUmPg26zF3Sb1Vn9kBkE2aSw42Qh3+rvMoyzcbq3VdJiFjVM9B4VdJvloNv05F6QTZI+yVXq7CwMAHCV58AxtPmgFpIUdRa54+ChsbECgKxx/Rp8XVKPD5NnOicYBoZuUo2x3GVn/7nMVz25GWbLwus3AFzIkTDvmtztHorx5yw7YmMIMD9Nmw1xrwEAgGl5jh1PmyEFMAoCbRmTb/WPFYaCCLVd707Ura3s4LGl8piiUFuJ8zd265L2g27zOOg2d4NusxDHg84oyHYo6cN8q1+NXs8wO4u60TjWuAbd5mYUZHskNzth3M9V6g1ORwAAEo0FNxguXHf1PODaC0CmWGuPJT3MwPzFM8ZsMuKxzwk2FS48oJvEZLaNMR02jJjJuVlVeK9+xeHDJNAGAOmfB1QpQ+bnLDuS7lIJuCC6v5Cl9U3Dew103wYAYLK5g+fYIa2zgRmAURBoy6BzobYjqnH9G6qkR36tuOvXinyAmgC5Sn0gQpmzsiLptqTPgm7TC7rNatBtjn3ezyjIdiLp43yrX8q3+h5DNRflBf3cwXVfEHSbq9H5OZD0qdwMsknSYa5Sr3IqAgAc58rcjgU3GXauC8sK1QAAZ7QzcIwrkj41xuwSHoplPrAafTj/KXOCqd1UuAiyQCliOz/bCu/Xu+zEWkugDUCWHThyHPvcY8v8nMXVMJvHCGdWO2PHu6Kw+zbXdAAAZPvabmibsDuA6xBoy6go1LapMCSC692WNPBrxaojx1NI85PPVep0Gpy9DYUfcA+CbrMddJvlq77YrxVX/VqxMYMgmyTdl1TIt/p0vZiv8oJ+7uCyfwi6zULQbe5GXxP3eZY0h0ppN00AAMbkUucnFtxkUDTmj+X2wnU6tAHInCgUkZV757cVhofKjPzE84FNST1J21QjNuuSenQRnPrcLBhjsnJuEmYDkHXcYwNzFoB5apJsRNd0DU4BAADG4jl4THe5xgNwFQJtGZZv9XsKF8sTahvNiqR9v1b0/FqxlPJjSX0I5Fyo7T6n5szP+21Jj4JucxB0m7tBt1kY/uMwyKYwYHQn5nPrQNIH+Va/GoVwMSene1uFBb5ODF79D1E3Nk/SZwoXWbm+y/WJpGr0OgcAgNOstT3HDmnfGMNGDBkRjfV+Bg61x2gDyKgsvaevS3pEt7ax5wIFY4ynsCvbGhWJ3bCLYJvzcqLzcyeax61n5JDbjDqAjHPxHluDYWXOAqSdtXag7G7WvSLpjjFmwCJ2AABG5jl6XKyjAHApAm0ZR6htIhuSHvu1YtuvFVP7IWoUWEm1XKV+nKvUqyLUNi9rCsNEn333P/83/+7r/+6/+N8lPVEYZIszYHQk6aN8q1+OXqMwf+UF/uyB9KIbW9BtHitcJLyRkdqfSCrnKnXOfQBAlrj2Ye5tY0zPGFNgaN1kjClHu0bfphoA4LR2Bo/5tqRBtKgUl88FVo0xbYWbL21QkZnbFt3axjk/h0HLu3J/Y7ChI2utx+gDyLiBg8d0xxjTIdju7JxleH8tK3MWPvvNtnbGj39N4SJ2gm0AAFwjusfl6nr+21zjAbgIgTYQapvctqRB1J0qjQquDEQUavuEU3L2zp58rm8f/yt9+2/+lz+1f/u7fxrzw59E41jKt/ptqr1Q5YVNTH78/l8E3WZP2enG9qpNwmwAgAxy8b1vXeGi2wY3ZN0RLQ5uS3qkDO0azeJgAFkV7aKexY20ViTdZaHZlXOBgcLPBzA/awq7tXlsHHHp+bkadbLJYtCS3Z0BwN2wzE2FGy4wL3VnzrIZhe+zdn/tmNHPtA4leH5dNwy27fDZCQAAmZw7DK/x2LwMwHME2iDpeaitpOy2OZ/UiqQ7fq048GvFasqee8mlgchV6g1JH3FKxs8G3+rZF7/U6V/9S33X+0vZ41/P4sfcl1TIt/qNfKvPzdzFKy/qB5vl1/97ZejDi1d8lKvUPU4/AEAGubrgZkVhN+MBwbZ0O7d4/TNlb/E6mx8ByLp2ho99uNDsOJrLFDI8Fyi/MhdY4VdjYTYkfWaMaRNse35+DoNsg+j6g9dqAMgga63LmyWu6EUAgkWP6ZyvFKLwykDSp8pe+J51WLxGDyQdUImX7jfclfQk6tJS5fMTAABe4noYfkXh5mUd7vECkAi04Zx8qz9QGGLgZspkF9v7cwy2eTE8hnM3A3KVelvSB2LBXSzsN0/13S//tb79q/9Rwf/9v0rffD2LH3Mg6f18q18lyJYMp3tbpeg1bf5efyvLpf8oeg0DACCLXO9Oej7Y1jbGlBjydIh2jO4om0G2rPx+AsCVoi6VWV90NpzLfDZcaJaRecD5RbePREe2pNlWxoNt0Tm6qxdBtqwGLe/T8QQAnnN93jrs2Dog/JCq+fTw3tpdLeoz6MUbcEZAbMJwmZuS9hWG27xoQ50yZQEAZJm1tqNsrIG+qRf3eFlDAWRYjhLgvHyrf+zXimWFgal1KjK2YbCtIamRb/XbCX6uTt4AyFXqvaDbLCncpYBzeALPvvilnn3+17PqxDZ0EP2OeFSc14Yhs/xaVmtOmA0AkGnWWs8Yk4VDXVG48HbbGHMUXXd3JHkswEyGaCFUWdJm9IfuKwTaAECSGgoDTQg/YL5pjNmX9PDcXGbgyFygdG4ewL3ldBjOrw8ULhDtuDy3juarm5Kqyl5nk8vsUgIAeOkaPgvvD2sKww/7xpj74v5aUuYpBYX31YZz6jWq8tLvJjLOWtuONqTgnvPlNqI/d6LPjI4UBkK96N+P+X3CHH5XPaoAICE6ys4ma5m6xwvg+wi04XvOhdp2xa6jk0pDsK3g7AtbpT4Ius1yNLm5yek4wgX5N08V/H//Vmdf/FIKvpvdD3rjLeXe/ydafu9PCpKqQbdZkNTJVepMQJNjc2E/eTmT0xLCbAAAhA6UrQWZa9H19rYkGWMOFX4QO/wzcGVheJJFO70WFC60KYuF6xdhgQCAzIvC91mbq4ziZvRH58L6PUm9NCz+iYJBwznA8H9ZWJhew4WP+8YYp8KW0Zx1+IfXoVeuI621zFcB4AVP0u2MHfP5+2sHr8xJB5wSM5mbFPTiftrqufk0c+nLMV/B0K7C7soYzVr0h+sgzPWtjhIASNC8IWvr98/f4x1e33mEjQH3EWjDhfKt/rGkql8rSoTapr24TmqwzekdsaKA1GbQbe4qezfuR2KDb3X25dE8urGdD7KdP/+GHzDsB93m4XACKqmXq9QHjND8ne5trWqBNwPNjbeyVnLCbAAAvJCVHaQvsx79eX79He1Aeqhw19FXdx4dRH9wteFC9aHSuf/GIpvRfzcBAHRpu86rYX3pxU7q5+cti5jDnJ8PFPRi8S1zAXedD1ueRPMZL/o3LyVz13L0dzZcuP61GQDANfzQcPGjzs1JD/TyfTW6+1xtOF++bC5N1zV+NzGdtgi0AQCAEVhre9GmuFm9P/hq59bhugkv+veBWC+BC6696O6XTgTacKV8q1/1a0VP0j7VmMr5YFtb0m4UGpz4RTeOJ3W6t1W+ceuB5/SLXKW+E3SbPYU7FrBIQdLZk8/17Itf6OzL/3e23dgkKfealv/wP1Pu/X983VcOF/DelqSg2xzu6uwpDLhxk3c+Nhf605dfy1KtCbMBAPAyT2xEcdk8eYju05i3EzpeAECILm0TYSd1JMGKXl7czuJRdxywOzMAfG/OOsj4gseLDOcA3FfDohzRLRCvvE7fFxvLAwCA0eyKtftD669c4wEX+VDJ3tQOl1iiBLhO1FXsQ0knVGNqawo/MB34tWLbrxULkzzIjVsP4koQl7JQ9Cg0UlaY0s+ks69+q+9++a91+lf/Ut/1/lJnX/zNbMNsude0XCjp9b/4Z6OE2S77XdmOJuSPg27TBt2mF3SbjaDb3Ay6zQIvJzOxuECbWZLJTqCNMBsAAK+w1naoApA4HiUAgJfsUAIASIwGJQAAruWBFGCzKDCPBQAAk+qIdfsAMoAObRhJvtX3/FqxrLC7GDt6TW9FYVhn268VDyS1o+DgvJWyUvBcpd4Lus3hOZyJHdjsN0/17DdHevarX0hP59RFNerItvxHfy6Tez3uRz+/k66CbvNE4Q1gT2H7YDq5TeF0b2t1ob8br72RhTKfSNrMVeoeZxwAABd6KHZLBpKEeSsAnGOt7bGTOgAkAt3ZAODqa/nblAFI1O8k8Bxd2gAAwBjzhmNjzK7CJioA4CwCbRhZvtXvnQu1scgwPhuSNvxacTeq7W6+1R+M8H2Hmj5cWMpSoXOV+rGkzaDb3JF018lJ7CJCbNKsg2yXWdH3Q27D342BwrBbT9IxAaLLBd1mSVLB5H9Ytf7vFvY8zGs3XC/1iaQyoUsAAK7U4VoTSBSuowDg+3YUdrhfoRQAsDANSgAAF7PWdowxJ8xXgcToUAJcMp8l0AYAAEaxq/BzCa7xADiLQBvGkm/1jyVt+rViQ6S+47aicLe0236teBhNRDpRzS8SR1opk932cpX6btBtegpvHq6l/XjOvvqtzp58Pv8Qm7SoINso5/W6zi2GjoJuw45uA70IvB0r7Ox27PI5H4XWViWVo/9UllR46fx/9u1Cn6PjgbYjhZ3ZCLMBAHA1jxIAyZnDWmuZvwLAK6IdURtydLMsAEiB+3RnA4BrdURQAkiCI2vtgDLgVXRpAwAAY8wb6NIGwHkE2jCRfKvf8GtFT+HNUJLf8VuXtC9p368VH0pq51v9V3duGuhcZ6pJne5tlW/ceuBl7sWvUu9FIZ+2UtgF4uzJ53r25ZHOvhxI33y9gAImMsh2ne91dBuKAm9H0e/VscKw2/D3bDD8/7lKfZCkAwq6zYLCYJoUdlxcjf4Muy+O9hphn8l+89ViD+b1t1x9uTlU2JnN6dAkAABxiD7EjaMTNYDpeZQAz8cJpwAAIABJREFUAC6ds+waYzYVw71ZAMBYTkR3NgAYBYE2IDm/i8BlGrxWAwCAEdGlDYDTCLRhYvlW3/NrxYLCmzB8eD87NyXd9GvFk6jWnSjcNojp8cvK6EK1KGCyGXSbOwpvFiV2wme/eaqz4y/07DefyR7/Sgq+W8wTeeMtLf/hn2v5p/8gTUG2Ua3pRceyC0OOUfBt6OCVfx7E+Hs5VNCLwNrQRvzn14LDbGZJZvk1F19m7kvaIcwGAMBYdhVu7gFgsVhwAwBX25H0mDIAwHyvF+lyAgDXs9Z2jDEnYrEjsGhtSoArXqsHxph7km5TDQAAcM28gS5tAJxGoA1Tybf6x5LKfq3Y4M1y5lYU7s6z7deKJ3oz/4ul1Z/KvP0jmaWpfpVLmX8hrNR3g27TU3hDMTHdIJ53YTv5T9LTBedh3nhLuff/iZbf+xN+E1/YuObvqXH21ZOF/nxzw8nubPdylfoOvyYAAIytIwJtwKKdWGsJtAHAFay1PWPMJ+KeOADMy6G1tkEZAGBkdGkDFuvIWtujDLhGQ1JVBJABAMD1dqN5wxqlAOCaJUqAOORb/YakDyQdUo25WNHv/X969vm/17Nf/BsF//Hf6uzJf5T99ptJHqtMOaVcpd7LVeolSZ8s6jmcPflcwWf/l759/K90+uhf6LveX+rsP/y7hYbZzOqPlfvT/1I3/uKfE2ZzlH32nRScLvgX8IZLJT2R9BFhNgAAJpybWHussMspgMUhzAYAo81bGuJ+OADMC/dbAWA8u5QAWCjur+Fa0echzHMBAADzBgCZRqANscm3+j2F4ah7VGPOnh7r7FcDPev/nwr+5v/Qs8//WmdPfyt7Fozy3Sune1slihjKVeoNSR9KOpr1z7oowPZs0JM9/vXC62De/UO9Vvqv9PoH/zVBNtcvdvwniz/f3OnQdiSpnKvU25xZAABMhfdSYLFY9AYAo9tUuLkNAGB27llrPcoAAKOLOkOx+QKwOG1KgBFfr9uSDqgEAAAYYd7QkfSQSgBwTY4SIE75Vv9Y0o5fK3YU3qChvem8ffet7MmXsidfhn9/402Zt1Zk3lyVya/ILF34a1+W1KN40Qtjpe4F3WZJUkPS7Vgmk9881dnT3+ns+HPZr75MRGjt+wf+mpbe/XvKvf+PZd54mxMhKxc633y18OdgXnci0HYgaTNXqR9zVgEAMOX8xFrPGHMoaZ1qAHN3FC16AwCMNm8ZGGN2JO1TDQCYiUNrLbtPA8BkdpmnAgubv3B/DeOoKlyztUIpAADANXYUrvdm3gDAGQTaMBP5Vt/za8VYA0GY0De/l/3m97L6Ivz7G2/K3MjLvLUqc+MHMm/kFU1w2IH9/ItjGErZCbrNscOZw/Ca/eq3Ojv+T7JfPZGC75J7sG+8peX3/oGW/+jPZXKvM/gZYr95Kj1b8LnpRpjtXq5SZ1EFAADxYsENsLjfPQDAGKy1bWNMWdI21QCA2FUpAQBMNU9tiE2IgXnj/hrGfb0eRK/Xd6kGAABg3gAgawi0YWZe6da2K3bXT4ZhwG3YwU2S8m/fDGrFXYU7/vTyrT67RQ1fJK/p1nb25HPZ06909vS3Yee1pIfXzjGrP9byT/+hlt/7EwY6qxc4v//bxZ+Hr7+Z5hKeSKrmKvUOZxMAADHPU1hwAyxqftumDAAwkR1JJXEPHADi9DHdTQBgag2xaRQwTyeS+OwYY7PW7hpjNiVtUA0AADDCvKEs6SbVAOACAm2YuXyr70kq+bViQ+EH+7Q6TRr/qXQurOXXipJ0KGmgKOQmaZDVoNvpo3+xKqlj3n7nO7P6d7fs09/8xH7zlfTN16k8nqX3/ljLf/TnWvrBjzj3s3xh8+w72W++WvjzMDdS26HtQGGYbcDZBADAzDTEghtgnjrW2mPKAADjs9YeRwvPeuL+NwDE4aG1lu4mABDDtb7Ce2xsGgXMR/v/Z+9+fuQ40/uAf0scquWl1pyF18E6sMNZ2WvDhgHNAomRHBYcI0cG4GyAHAK4oRbQtxw0AnRksM1ARwI7vOTUgJpoINcdHnTe5jHIwcN/gOmJEcTYeKMZy5TdWoqdQ9WILYq/hjNdU939+QANUpSornnq7eq3fnzfx/U1TqET1xUAgJPNG5zrAQtPoI3aXLr1oPfwo3cGKbu1SYY337vV6+t9VQXdDlIG3b71unTrwXgRf9CHH72zkWQjyXrKlZRnf/16VeXp559l+vlni7k33/pOLvz+n+fC7/1xirU3jW4yfdiAsVy8keLNhQy03Vy7dqNnFAHAnOcrurRB3cxxAU43dxlXq6L+tWoAnMr9lA/lAHD6OephdX3NolFQD4F8TnPMHhdF0UnyC9UAAF7hXG877kcAS0CgjVpVgafthx+9s5XyQs67qrJwrlSvb7W5rwJvSdm5KHkSdkuSw5QrAsyOh9FZb9xMOO3YcTjt2NbM768u+84qvv/7ufCDP8mF3/UMMLNnNF9l+sXR+Y/PxevOdpCyK9vIIAKA2vTigRuow53pdDpWBoDTmU6n+0VRvG/+AvDajpJ0dDYBONM5qkWjoB6ur3EWx+y9oihuJ/lANQCAl8wb3I8AloJAG+eiCjJtPvzonU7KYJt26cvl6lO/PtNMAO5ZjvJUAK7yja5pPMNb38mFH/xxLvzej1K89V314NsnM//0D8n08blvR/HW24tUtjtJdtau3fAgBQDUOW8pH7jpZAUWo4Bz1lMCgDOdv2wk+ZlqAJzY9nQ63VcGgDPXSfJLZYC56ikBZ2E6ne4URbEZ90UAgJfPGwZFUWwleU81gEUl0Ma5unTrweDhR+/sJdmpXoJtHLscF2dO5I0f/GHe+P6Gbmy81OPPf92MDXlzITq0HaXsyrZn5ADAudlJ8tfKAHNj9WiAMzadTntVqM1NZIBX9/50Oh0pA8Bc5qejoijuJrmuGjAXrq9x1raTjGLBbwDg5ed7naIo1p3vAYvqDSXgvF269eDw0q0HvSQbKTvgAK/qu+u58Ed/kTd/8le5+KdXhdl4+QnMPx4lX/3m/DdkrZXiwsWml+tukg1hNgA45/lLuTr/TZWAuekpAcBc5jCduN5N89xLcl8ZaKAPp9PpQBkA5mon5UKOwNnrKQFnaTqdHqYMtTluAwCvohPXfYEFJdBGY1TBtk6SH8aNfni+tYt54/f/LBf/1fW0/uW/z9of/HmKtTfVhVfy+B8+a8R2FK1Gd2c7SPKXa9dubK9du3Fo1ABAI+xW39HA2bpt9WiA+alCbfdUgoa4OZ1Ot6bT6WYsGEGz3JlOp7vKADD3uek4QjcwD66vMc/j9laE2gCAl88bDqt5g1AbsHAE2micS7cejAXb4BkH7B/8Ydb+/N+m9ZN2Lv7oX+eNt39HUTjZicuXXySPJo3YluI7l5tapttJNteu3RgZMQDQoHnMk9VIgbNzFA+yAdRhO24ic74Okvx4Op32ZubXvSQ/jkUjOH93qvAvADWoAsQWXICz4/oa8z5u70eoDQB4tXmDUBuwkATaaKxnBNucnLNyiu//ftb+9Cd58yd/lYt/ejUXfveKovDaHn/+62ZsyIWLKdZaTSvPvSQ/Xrt2Y0dXNgBopurGrU4ScHZ2qhsbAMx3DnN8E/muanAO7ibZrObSz5pfb8bCgpwfYTaA87Edz17AWem5vsa8CbUBACeYNwi1AQtnTQlouku3HoyTdB5+9M56kp3qdVllWFbF+j/Lhd/7k7zx/Ssp1t5UEM7mZOXLL5Ivv2jGGH/r7SaV5ijJztq1GwOjBAAWYE4znfaKothMcl014FTuTadTc2CA+uYwh0m2i6IYJHlPRajJh1UXlpeNzU5RFKMku3HvhfoIswGc49y0KIrtJL9UDTiV+y+bb8MZHrv3i6LYSjJy3gYAvMI53/G84V0VAZpOhzYWxqVbDw4v3XrQu3TrwXqS95McqApL47vrufBHf5E3/81/yJs//ne58IMfCbNxphrTnS1J8Z3GXF+9nWRDmA0AFk4nVhSD0ziqPkcA1KwKb+iGxbwdJPnxSR6urYLuW+bZ1OR9YTaAc5+XjlI+cwG8PvMZ6j5269QGALzqvOFwOp1uxv0IYAHo0MZCunTrwSDJ4OFH72yl7NhmdX4WTnH5d/7mwj//sz/QiY25n6A0qDtbLlxMsdY67624l6Szdu3G2OgAgAWc25QrinViJVJ4Xb3pdGouDHB+c5lOURTjJD9TDebgXpLtqvPaScfm8Yr/u9FJkPl5X6dggMbMSwfVd7/vfTi5m1W4COo+duvUBgCcZO7QKYriMMkHqgE0lQ5tLLRLtx6MLt16sJ3kh0luRtc2mu0oyd2Uq9197zv/+X/8iws/+NEPi7U3rYLAXD0++lVjtqV46+3zfPuDJH+5du3GljAbACw2K5HCa7t7km4tAMxtLtOLjhicvZvT6XTrdcJsM2PzsOqcZXxy1o5Sdg4cKAVAo+alnVixH07qfnVOB+d17N5PshEdtgGAV5s77KS83uvZCqCRdGhjKVy69WCcpJek9/Cjd7aTdKJrG81wkGQvyejSrQd73zoIl6GazqNPP+6l7DbYiVWUOMsTkn88Sh5NGrM9xXcun9fnsLd27cbAiACAJZrnWIkUXmde3FEGgMbMZQZFUeyby3AGjlJ2ZRsZnzTU/WqMjpUCoJF2kmwmeVcp4JXm3h1l4LxNp9NDHbYBgBPMHY6v9w6c+wFNo0MbS+fSrQd7Vde27yX5MFakoX73qrH340u3HmxcuvVg51lhtllr126M167d2Em5itLNWA2BM/L48183Z2MuXEyx1qrzHY+S3Fy7dmNDmA0AlpNObXAi26fp2ALA3OYym3ENm9d3P8nmWYbZnhqfG8Ynp3QnyZYwG0Cj56SHKa+v+c6Hl9up5snQiON31WnzQ9UAAF5h7nD8bIUu3UCjCLSxtC7denB46daD3Uu3Hmwm+WGS2ylXI4ezdlBN8n6a5HuXbj3YqsbeiS9krl27cbh27UYv5YMCHxqznMbjh58lX/2mMdtTXPpeXW91lDIYulF9ngCAJSbUBq/kfQ/bADR2LjOeTqebKa9fw0ncnk6nm/MMClUPSBqfvI6jag7asagCwELMSY9DbXdVA57rznQ6HSgDDTyG7yb5cTxfBAC8wrlfFYj/aTxfATTEmhKwCi7dejBOspNk5+FH72wm6STZTnJFdXgNR0lG1WuvGl9ne3C+duMwyW6S3Uefftypxq9Wv5zg7OOrTD//u0ZtUvHW23V8NneT7FafIQBgVaY+0+l+URRb1Rz9sorAN9z2sA3AQsxndoqiGCUZmM/wEkdJOtPpdK/m8bmf8tqb8cnL3K/GqAUVABZrPnqYZLsoikGS91QEvjm/qR78haYew/eLothM0kvygYoAAC+ZO+wVRbGR8n7EdRUBzpNAGyun6po1G27bShlwExbieWYDbKPX6bx2qgP1tRuDJINHn358PFbdQOClHn/+62T6uDHbU7z1dooLF+f1vz+oTq4E2QBghVU3bDeqebvzOyjdmU6nO8oAsDDzmb3qAbRBkqsqwjPcT7I9z65sLxifgyrUNjDf5gVuTqfTnjIALPSctFMUxTjJz1QDkpT3oreUgQU4fh8m2SmKYq86b7PIOwDwsrnDdrVwsLkDcG4E2lhpVTBpP8nuw4/e2Uh5EWq7+tUqo6vrXANszz1gX7sxSjJ69OnHvZTBth3jlGeebDyaZPrws0Zt05y6sx0k6VWhTwCA44uum0VR7MYqpHDHytEACzmfGSfZKopiJ+XK6q7/cez2eQfVZzojD2LlXr5JVzaA5ZqT9maC7OajrLKjlAtKWFSVRTqGj3RrAwBOMndIslEURS+eSQbOgUAbVC7dejBOeUF2kCQPP3pnK08CblYbXW73UwYbRykDbONGH7iv3RinvPDUe/Tpx52U4TYrNvO1x0e/atYGFW+k+K0zPc+5l7Ib2569DQA8y3Q63SmKYhQP3bC6hNkAFn8+szuzqrprf6vtIGVQaNSQsXm8cq/QJUn5kHdvOp3uKgXA0s1Hj7sH78XzEqzuPGdLYJ8FPYYfd2sbJNmN6woAwMvnD71q7tBL8p6KAHURaIPnuHTrwShlwKn38KN31lOG245fLtguroOU4bX9lOG10UIfxMvOVINHn368kXJ1hE48QLDaJxb/eJR8+UWjtqn4zpkNyTspg2xuGgAAL58XlQ/dbKR86MbNWlaJMBvA8sxnxim7tXVSPoDmut/quZ0yLHTYwPG5O7OIhHsmKzrvTLKjYwnA0s9HN6uV+n+mIqwQYTaW5Ti+n/K6wlZ17nZFVQCAl5wDdqpzwF4E24AaCLTBK7h068Fhyocgv+4GNNPBbSvJZjxM0ETfCK8l2a/25fIdzMuubTtJdqqubdtJrhsCq3ZG8VXzurMlKS5977Sf40HKIJsHIwCAk02Pygcrt4qi2I5ubawGYTaA5ZzTDKpubb0kH6jISmhUV7YXjM39eMh9Fd2rxudYKQBWZj7am+keLMjOshNmYxmP46MkG9WCOb0ItgEAL547jCPYBtREoA1e00wHtyTJw4/e2ciTcNvxy8OS9TjKk+DaOGVwbbSyB/Zvdm3bThl0czFqBTz+/NfJ9HGjtql46+0UFy6+zl+9m2Swdu3Gnj0LAJzWTLe2nXjQluX14XQ63VUGgKWdzxwm2SmKYjdltzaLWS2vm0l2F6nrlYfcV8a9lB0DR0oBsJLz0eMg+07KBxo9C8EyEmZj2Y/lgySDKtjWSXJVVQCAF8wdxnkSbNup5g/OBYEzJdAGZ+TSrQfjlDdrv1aF3GYDbhtxM/c0DlIG1kZJDlOF2Ja169qpD/Bl17bdJLuPPv14s5pMbke4bTlPHr78ItOHnzVuu4rf+u2TfsYHKYNsY3sVADjT+VL5QHCvKIpBrCLGcjlKsu3BYoCVmdOMk2wXRbFVzWk8fLY8FrrrlYfcl9rdlCFL800AMp1Od6vrazvVy3c+y+J+NR8XZmMVjuWDlMG2zepY7n4JAPCiucM45YJ7vTxpsuFZeOBMCLTBHFUht3GSb3QYevjRO5tJ1lN2dFvPk7CboFF50z75Zmjt8NKtBy4anuZgf+3GfjWJ3Hn06cfb1aRyO24wLI3Hh3/bvI26cDHFW9992X91VB0j93RjAwDq8NQqYr24Ucvin0NvL1IHFwDObE4zSrIl2LYUDlI+ODtakrG5O7OIxAd278I6vm7bW9SQJQBz/b5/euEo951ZdHerOblrbKza8Xw/5f2S444rnXg4HQB48bngIN8MxjsfBE5FoA3OwUw4a/T0v6u6us2+jgNvyWKH3u6nDKjN/tzj6iWwVueBvwwN7SWJcNtyePz53yVf/aZx2/XGd3/nRf/6bp4E2dwYAABq91SwrRMrSrNYjlI+XLyrFAArP6cZpQy2bURYf9EcVN/ngyUcl4cpV+zdNS4Xzv0ku0n2PNANwCt8549TXl9bj45tLK4PXWPD8Xx6WJ0H7FbXF7Yj3AYAvHj+sF/NF1IUheeQgdcm0AYNM9PV7YVmurwl3wy9JRcvrufNt56/8umXk+Q3X758Yy6+mbzZemoW8vif8sXD/1790+ipv3HcUe3Y/qVbD9zwbPKXwDfDbVszk0rdAhflxODRJNN/+HXzNqx4I8Vbbz/9p18/DCHEBgA0Zj5VPnjTS7mq9PFN2usqQ4PdTbKjUwYAz5jTzK6qvhPX+JpqaYNsLxmXx2PTuGzmmNxLMqgeRAGAk37nH+bJ9bVO9Z2vgzBNdz9lVzbzH/j2edzT4bat6uUBdQDgWfOHr59DFm4DTkqgDRbUMzqa7c3+w6Tf3sx8LhK/lWSv1R1aoWrZvhCu3RilDCnuPPr0482UF6M6seJSg88Evsrjz/5PIzetuPS9pLiQPOnENlq7dmNspwEAjZ5eVRdaq1Wljy+yCrfRFPdSPvw+UgoAXjCfmV1VfSvl9T03jpvhbpLdVfwuf+ohd4tINIMQGwDz+t4fJBno8EODHVXz8p5SwEuP6eNU1xiSpLrOsJVy0fWtuNYAAHx7/jAbbtvMk3C8RU+AZxJog+U1mOMEoDfptwet7lCHpWX9crh2Yz9lt73dR59+vD4zqfTwS4M8/vzXyaNJI7et+K3f/k9J/ptObADAIqoeuB2kfPhmdj68FR0lqJ8gGwCvO6cZpVzAyqqo5+d+Na/c013163H59CISW8ZlrfPKvSQjITYAavjOH+fbHX624yFGztedJDvV9V/g5Mf2UarrDElSHd838iTktu44DwDMzB2On0M+njts5clzF5txTRiIQBsss70kn8zp/3055WqqO8q8Al8UZSBpUL1SdW+zasJ5T/a//CLTh581dfPuXLz+X/6rvQQALMW8aybclnx9g3YrTy6yWmGaeTiqxtyuh98BOKM5jVVR6yPE9nrz7M2ZefZWPMxwFvPJUcoHRkYWRwDgnL/3x3l2hx/zUeqaF+2m7Exrfg5nf3wfZybkVh3n11PeP0l1rM8zfj/LdwEArMbcYZRvh+M386T7q5AbrCCBNlhSre7wcNJv30ny3pze4oOqS5tVPFfti+NJ97YkyaNPP96KGw41z+y/yuP/97+bvIU9OwkAWNqpWHmDdlC9knz9EM5GnqxEuh5BN07ufsoL+HseOAZgzvOZZ62KujnzMo85mXtVPUcpg0O6PZxuXB4/6D47vz7+vQcanj8Gx3nyIOnYw9oANPx7f5RvPsR4PA89/u53bY3TOkq5oMdetbgHUO9x/nDmOD9SEQDgOXOGccprmnsz54frM+eHG3nSBda1YVhSAm2w3PYyv0BbUt5Y3lLmFf8iuXZjlJkLUE8F3Ewi5+Dx4d8m08dN3bw7re5wbC8BAKvkeeGjE65Cau68Gg5SXpRPyge2j2/s73v4HYBznsuMnprHHN8k3pqZq6zP/CersrDV/er7+tho5lehofmOy3GesdL/U+Nzdr79vHn2Io7X2Tljnpo7zo5Dc0gAluV7/xsLLsx852+kfIBx9jv/+M9mua622u5Vv47zpDuthZkBAGAxzw9ng/F5wXni8bng8X2Lp68VZ+Yc8orKQnMV0+lUFWCJTfrt8Zy/jN9vdYcDleZ5Hn368dMtga2mdwqPH36W6d//qsmb+EOBNgAAAAAAAAAAAAAAnkegDZbcpN/uJfnZHN/iKMlGqzu0CiivrOritjnzEnJ7BdNHkzz+v+Mmb+KdVnfYsacAAAAAAAAAAAAAAHieNSWApTfIfANtl5PsJukoNa/85XPtxihPtQWuQm4b1WsrZdDtsmpVpl/l8d/9r6ZvZc+OAgAAAAAAAAAAAADgRXRogxUw6bf3klyf89v8Zas7HKk2Z+0ZQbf1rGBHt69+/TfJl180eRN1ZwMAAAAAAAAAAAAA4KUE2mAFTPrtrSS/nPPbHCTZbHWHhypOHR59+vF6yi5uG0+9li7w9vjvf5Xpw8+avIlH1ed/bGQCAAAAAAAAAAAAAPAiAm2wIib99jjJlTm/ze1Wd7ij2jRF1d0tKUNum9XvN6rXsasN2dyDJOPq94dJ9pPk8d//6o+nDz/7jw0v9c1Wd9gz4gAAAAAAAAAAAAAAeBmBNlgRk367k+STGt7qp63ucE/FWVSPPv14M2UA7mmzobiTGD3nz8dr126MX/K53az+/uUGl+woyYbujAAAAAAAAAAAAAAAvAqBNlgRk357PWX3p3kHY4RbYLE+s6f1Yas73LXHAAAAAAAAAAAAAAB4FW8oAayGKmBWR+jkchId2uAUqjDbKM0Psx0IswEAAAAAAAAAAAAAcBICbbBadlN2UJu3q5N+e0e54bUNkry7ANvZsasAAAAAAAAAAAAAADgJgTZYIVWXtrq6p/180m9vqjqczKTfHiS5vgCbeq/VHY7sMQAAAAAAAAAAAAAATkKgDVZPr8b32pv02+tKDq+m6mz43oJsbsceAwAAAAAAAAAAAADgpATaYMW0usNxkjs1vd2V1NcRDhbapN/uJPn5gmzuzepYAgAAAAAAAAAAAAAAJyLQBqupV+N7XZ3027tKDs9Xhdk+WZDNPUjiMw0AAAAAAAAAAAAAwGsRaIMVVHOXtiT5oArsAE+Z9NvbWZwwW5J0Wt3hoT0HAAAAAAAAAAAAAMDrEGiD1dWr+f0+mfTbm8oOT1SficECbfLdVnc4sucAAAAAAAAAAAAAAHhdAm2woqoubTdrftvRpN/eUH34Osw2SnJ5QTb5KEnHngMAAAAAAAAAAAAA4DQE2mC17aYMqdTlcpK9Sb+9rvSssgUMsyVJr9UdHtp7AAAAAAAAAAAAAACchkAbrLAqnLJb89u+m7JTm1AbK2lBw2z3Wt3hrr0HAAAAAAAAAAAAAMBpCbTBimt1h70kBzW/7btJBqrPqpn029tZvDDbUZKOvQcAAAAAAAAAAAAAwFkQaAOSZOcc3vP6pN8eKD2rYtJvd5L8IosVZkuSXqs7HNuDAAAAAAAAAAAAAACchWI6naoCkEm/PUpy9Rze+k6rO+zYAyz556uT5JMF3PS7re5w2x4EAAAAAAAAAAAAAOCs6NAGHNs5p/d9T6c2ltmk397JYobZjpJ07EEAAAAAAAAAAAAAAM6SQBuQJGl1h/tJbp/T2wu1sZSqcf3zBd38Tqs7PLQXAQAAAAAAAAAAAAA4S8V0OlUFIEky6bfXk4yTXD6nTbjT6g479gRL8lkaJLm+oD/C7VZ3uGNPAgAAAAAAAAAAAABw1nRoA75WdWPqnOMm6NTGwqvCbKMsbpjtfpKePQkAAAAAAAAAAAAAwDzo0AZ8y6TfHiW5eo6boFMbi/rZ2UwZZru8oD/CUZKtVne4b28CAAAAAAAAAAAAADAPOrQBz9JJGWw5L+9N+u1R1ekKFsKk3+5kscNsSbIjzAYAAAAAAAAAAAAAwDwJtAHf0uoOx0l657wZV5MItbEQJv32bpJPsthhtjut7nBgbwIAAAAAAAAAAACvJXb9AAASvklEQVQAME/FdDpVBeCZJv32KGWw7DwdJNnWNYqGfkbWk+w14HNyWveTbLW6w0N7FQAAAAAAAAAAAACAedKhDXiRTpKjc96GKyk7tW3bHTTJpN/eSjLO4ofZjlKGRoXZAAAAAAAAAAAAAACYO4E24Lla3eE4yU4DNuVykl9M+u0de4UmmPTbvSS/rMbmotuuPusAAAAAAAAAAAAAADB3xXQ6VQXghSb99l6S6w3ZnDtJdnST4pw+C+tJ9rL4XdmOfdjqDnftWQAAAAAAAAAAAAAA6qJDG/AqOkkOGrIt7yUZTfrtDbuFOk367e0k4yxPmO2OMBsAAAAAAAAAAAAAAHXToQ14JZN+eyvJLxu0SUdJOq3ucM/eYc5jfz3Jbsow5bK43+oON+1dAAAAAAAAAAAAAADqpkMb8Epa3eEoyc0GbdLlJL+Y9Ns6TDE3VZBzP8sVZjtIsmXvAgAAAAAAAAAAAABwHnRoA05k0m+Pklxt2GbdT9mtbd8e4ozG+XqSXpIPluxHO0qy5bMCAAAAAAAAAAAAAMB50aENOKntlB2emuTdJKNJv71j93Bak357O8k4yxdmS4TZAAAAAAAAAAAAAAA4Zzq0ASc26bc3k/x1QzfvXspubWN7ihOO640ku0muL+mP+H6rOxzY0wAAAAAAAAAAAAAAnCcd2oATqzo8vd/QzbuaZF+3Nk5i0m/3kuxHmA0AAAAAAAAAAAAAAOZKhzbgtU367UGS9xq8ifeS7FQBPHjWGN5KMkhyZYl/zNut7lDAEwAAAAAAAAAAAACARhBoA05l0m+PUnZFa7KbSXZb3eGhPUY1bjdSBtmuLvmPeqfVHXbscQAAAAAAAAAAAAAAmuINJQBOaTvJ/YZv48+S7E/67W27a7VN+u2NqrPg/4wwGwAAAAAAAAAAAAAA1E6HNuDUJv32ZpJRkssLsLn3kuy0usN9e26lxuh6kp3qdXkFfmRhNgAAAAAAAAAAAAAAGkmgDTgTCxZqS5I7SXqt7nBs7y31uFy1IFsizAYAAAAAAAAAAAAAQIMJtAFnZtJvd5J8smCbfTtlsO3QHlyqsbiKQbZEmA0AAAAAAAAAAAAAgIYTaAPO1IKG2o6S7CbZFWxb+PG3kTLE1slqBdkSYTYAAAAAAAAAAAAAABaAQBtw5hY01JaUwbZBymDb2J5cqDG3mTLI9t6KlkCYDQAAAAAAAAAAAACAhSDQBszFpN8eZLHDRXeS9ATbGj/OOim7sV1d4TIIswEAAAAAAAAAAAAAsDAE2oC5WYJQW5LcS9mxbc8ebcy42kgZYuskubLi5RBmAwAAAAAAAAAAAABgoQi0AXO1JKG2JDlIMkgZbju0Z89lLHWSbCe5rhpJktut7nBHGQAAAAAAAAAAAAAAWCQCbcDcLVGo7djdJANd22oZO5tJdlIG2S6ryNfeb3WHA2UAAAAAAAAAAAAAAGDRCLQBtVjCUFuSHKXs2jZodYf79vKZjZXNJJ2UIbYrKvKtMbcjzAYAAAAAAAAAAAAAwKISaANqs6ShtmMHSfYi3Pa6Y2M7yVaE2F7kKMmW8QUAAAAAAAAAAAAAwCITaANqNem3d5L8fMl/zKOU4ba9JKNWd3hoz39rHGzkSYBtK8llVXmh+0k6wmwAAAAAAAAAAAAAACw6gTagdpN+u5PkkxX6ke8lGaUMt41WdJ9vJNmMLmyvO362BSMBAAAAAAAAAAAAAFgGAm3AuVjBUNusrwNuSfaXMag06bePw2vHvwqwvZ47re6wowwAAAAAAAAAAAAAACwLgTbg3FShp1GSyyteioMk+9VrlGTc6g7HC7IP11OG1o5fG0muGt1n4v1WdzhQBgAAAAAAAAAAAAAAlolAG3CuqlDbXnTwepZ7SQ5TBt3Gx6+6w26TfnsjZVDt6ddmhBHn4SjJVqs73FcKAAAAAAAAAAAAAACWjUAbcO6qLl+jJO+qxoncm/n9fsrwW17yZ8eOO6u96M90Wqvf/ZRhtkOlAAAAAAAAAAAAAABgGQm0AY0x6bcHSd5TCVbU7VZ3uKMMAAAAAAAAAAAAAAAsszeUAGiKVnfYSfKhSrBijpL8VJgNAAAAAAAAAAAAAIBVoEMb0DiTfnsryV6Sy6rBkruXpNPqDsdKAQAAAAAAAAAAAADAKhBoAxpp0m9vpAy1vasaLKmbre6wpwwAAAAAAAAAAAAAAKwSgTag0Sb99m6SD1SCJXKQZLvVHe4rBQAAAAAAAAAAAAAAq+YNJQCarNUd7iT5aZIj1WAJ3E6yKcwGAAAAAAAAAAAAAMCq0qENWAiTfnsjySDJVdVgAR0k6bS6w5FSAAAAAAAAAAAAAACwygTagIUy6bd7SX6mEiyQ20l6re7wUCkAAAAAAAAAAAAAAFh1Am3Awpn025spu7W9qxo0mK5sAAAAAAAAAAAAAADwFIE2YGHp1kaD3Wx1hz1lAAAAAAAAAAAAAACAbxJoAxaabm00zL2UXdnGSgEAAAAAAAAAAAAAAN8m0AYshapb206Sy6rBOThIstPqDveUAgAAAAAAAAAAAAAAnk+gDVgak357I2W3tquqQU2Okuwm2W11h4fKAQAAAAAAAAAAAAAALybQBiydSb+9nTJkdEU1mKM7SXqt7nCsFAAAAAAAAAAAAAAA8GoE2oClNOm315PsVK/LKsIZupdkp9Ud7isFAAAAAAAAAAAAAACcjEAbsNQm/fZGkl6S91SDU7qXsiPbSCkAAAAAAAAAAAAAAOD1CLQBK2HSb28m2U1yVTU4IUE2AAAAAAAAAAAAAAA4IwJtwEqZ9NtbKTu2CbbxMoJsAAAAAAAAAAAAAABwxgTagJUk2MYLCLIBAAAAAAAAAAAAAMCcCLQBK02wjRl3kgwE2QAAAAAAAAAAAAAAYH4E2gDydbBtJ8l11VgpR0kGSXZb3eFYOQAAAAAAAAAAAAAAYL4E2gBmTPrtjZQd27aTXFaRpXVQ7ee9Vnd4qBwAAAAAAAAAAAAAAFAPgTaAZ5j02+tJOim7tl1RkaVxJ8mg1R2OlAIAAAAAAAAAAAAAAOon0AbwEpN+eztluO26aiyk+0kGKYNsurEBAAAAAAAAAAAAAMA5EmgDeEWTfnsjyXZ0bVsEB0n2UobY9pUDAAAAAAAAAAAAAACaQaAN4DVM+u3NlF3bOkkuq0gjHOVJiG2kHAAAAAAAAAAAAAAA0DwCbQCnNOm3t1N2btuOcFvdjjuxjVrd4Z5yAAAAAAAAAAAAAABAswm0AZyhmc5t20muqMhc3E8ZYttrdYf7ygEAAAAAAAAAAAAAAItDoA1gTib99kbKYNtWkusq8toOkoyq116rOzxUEgAAAAAAAAAAAAAAWEwCbQA1mfTbWynDbVtJrqrIcx0H2PaTjHRhAwAAAAAAAAAAAACA5SHQBnBOZgJum9XryoqW4l7K8NpxgG1sdAAAAAAAAAAAAAAAwHISaANoiEm/vZFkI8sbcjtKFVpLMk6yr/saAAAAAAAAAAAAAACsFoE2gIarOrmtpwy4bVSvzSSXG7i5x6G1w+rXcZ6E1w7tTQAAAAAAAAAAAAAAWG0CbQALbKar23HgLU/9PtW/P02nt4OUobRj45l/Pg6vHeq2BgAAAAAAAAAAAAAAvIxAGwAAAAAAAAAAAAAAAAC1eEMJAAAAAAAAAAAAAAAAAKiDQBsAAAAAAAAAAAAAAAAAtRBoAwAAAAAAAAAAAAAAAKAWAm0AAAAAAAAAAAAAAAAA1EKgDQAAAAAAAAAAAAAAAIBaCLQBAAAAAAAAAAAAAAAAUAuBNgAAAAAAAAAAAAAAAABqIdAGAAAAAAAAAAAAAAAAQC0E2gAAAAAAAAAAAAAAAACohUAbAAAAAAAAAAAAAAAAALUQaAMAAAAAAAAAAAAAAACgFgJtAAAAAAAAAAAAAAAAANRCoA0AAAAAAAAAAAAAAACAWgi0AQAAAAAAAAAAAAAAAFALgTYAAAAAAAAAAAAAAAAAaiHQBgAAAAAAAAAAAAAAAEAtBNoAAAAAAAAAAAAAAAAAqIVAGwAAAAAAAAAAAAAAAAC1EGgDAAAAAAAAAAAAAAAAoBYCbQAAAAAAAAAAAAAAAADUQqANAAAAAAAAAAAAAAAAgFoItAEAAAAAAAAAAAAAAABQC4E2AAAAAAAAAAAAAAAAAGoh0AYAAAAAAAAAAAAAAABALQTaAAAAAAAAAAAAAAAAAKiFQBsAAAAAAAAAAAAAAAAAtRBoAwAAAAAAAAAAAAAAAKAWAm0AAAAAAAAAAAAAAAAA1EKgDQAAAAAAAAAAAAAAAIBaCLQBAAAAAAAAAAAAAAAAUAuBNgAAAAAAAAAAAAAAAABqIdAGAAAAAAAAAAAAAAAAQC0E2gAAAAAAAAAAAAAAAACohUAbAAAAAAAAAAAAAAAAALUQaAMAAAAAAAAAAAAAAACgFgJtAAAAAAAAAAAAAAAAANRCoA0AAAAAAAAAAAAAAACAWgi0AQAAAAAAAAAAAAAAAFALgTYAAAAAAAAAAAAAAAAAaiHQBgAAAAAAAAAAAAAAAEAtBNoAAAAAAAAAAAAAAAAAqIVAGwAAAAAAAAAAAAAAAAC1EGgDAAAAAAAAAAAAAAAAoBYCbQAAAAAAAAAAAAAAAADUQqANAAAAAAAAAAAAAAAAgFoItAEAAAAAAAAAAAAAAABQC4E2AAAAAAAAAAAAAAAAAGoh0AYAAAAAAAAAAAAAAABALQTaAAAAAAAAAAAAAAAAAKiFQBsAAAAAAAAAAAAAAAAAtRBoAwAAAAAAAAAAAAAAAKAWAm0AAAAAAAAAAAAAAAAA1EKgDQAAAAAAAAAAAAAAAIBaCLQBAAAAAAAAAAAAAAAAUAuBNgAAAAAAAAAAAAAAAABqIdAGAAAAAAAAAAAAAAAAQC0E2gAAAAAAAAAAAAAAAACohUAbAAAAAAAAAAAAAAAAALUQaAMAAAAAAAAAAAAAAACgFgJtAAAAAAAAAAAAAAAAANRCoA0AAAAAAAAAAAAAAACAWgi0AQAAAAAAAAAAAAAAAFALgTYAAAAAAAAAAAAAAAAAaiHQBgAAAAAAAAAAAAAAAEAtBNoAAAAAAAAAAAAAAAAAqIVAGwAAAAAAAAAAAAAAAAC1EGgDAAAAAAAAAAAAAAAAoBYCbQAAAAAAAAAAAAAAAADUQqANAAAAAAAAAAAAAAAAgFoItAEAAAAAAAAAAAAAAABQC4E2AAAAAAAAAAAAAAAAAGoh0AYAAAAAAAAAAAAAAABALQTaAAAAAAAAAAAAAAAAAKiFQBsAAAAAAAAAAAAAAAAAtRBoAwAAAAAAAAAAAAAAAKAWAm0AAAAAAAAAAAAAAAAA1EKgDQAAAAAAAAAAAAAAAIBaCLQBAAAAAAAAAAAAAAAAUAuBNgAAAAAAAAAAAAAAAABqIdAGAAAAAAAAAAAAAAAAQC0E2gAAAAAAAAAAAAAAAACohUAbAAAAAAAAAAAAAAAAALUQaAMAAAAAAAAAAAAAAACgFgJtAAAAAAAAAAAAAAAAANRCoA0AAAAAAAAAAAAAAACA/9++HQsAAAAADPK3nsWu8mghtAEAAAAAAAAAAAAAAACwENoAAAAAAAAAAAAAAAAAWAhtAAAAAAAAAAAAAAAAACyENgAAAAAAAAAAAAAAAAAWQhsAAAAAAAAAAAAAAAAAC6ENAAAAAAAAAAAAAAAAgIXQBgAAAAAAAAAAAAAAAMBCaAMAAAAAAAAAAAAAAABgIbQBAAAAAAAAAAAAAAAAsBDaAAAAAAAAAAAAAAAAAFgIbQAAAAAAAAAAAAAAAAAshDYAAAAAAAAAAAAAAAAAFkIbAAAAAAAAAAAAAAAAAAuhDQAAAAAAAAAAAAAAAICF0AYAAAAAAAAAAAAAAADAQmgDAAAAAAAAAAAAAAAAYCG0AQAAAAAAAAAAAAAAALAQ2gAAAAAAAAAAAAAAAABYCG0AAAAAAAAAAAAAAAAALIQ2AAAAAAAAAAAAAAAAABZCGwAAAAAAAAAAAAAAAAALoQ0AAAAAAAAAAAAAAACAhdAGAAAAAAAAAAAAAAAAwEJoAwAAAAAAAAAAAAAAAGAhtAEAAAAAAAAAAAAAAACwENoAAAAAAAAAAAAAAAAAWAhtAAAAAAAAAAAAAAAAACyENgAAAAAAAAAAAAAAAAAWQhsAAAAAAAAAAAAAAAAAC6ENAAAAAAAAAAAAAAAAgIXQBgAAAAAAAAAAAAAAAMBCaAMAAAAAAAAAAAAAAABgIbQBAAAAAAAAAAAAAAAAsBDaAAAAAAAAAAAAAAAAAFgIbQAAAAAAAAAAAAAAAAAshDYAAAAAAAAAAAAAAAAAFkIbAAAAAAAAAAAAAAAAAAuhDQAAAAAAAAAAAAAAAICF0AYAAAAAAAAAAAAAAADAQmgDAAAAAAAAAAAAAAAAYBE61aQJ2TkwoQAAAABJRU5ErkJggg==;" vertex="1" parent="XSYFVMKUtkD-H1u4hj6i-2">
          <mxGeometry x="150" y="110" width="136.85" height="30" as="geometry" />
        </mxCell>
        <mxCell id="4uHQJCX2Fivl2QLk6r_y-7" value="" style="verticalLabelPosition=bottom;html=1;verticalAlign=top;align=center;strokeColor=none;fillColor=#00BEF2;shape=mxgraph.azure.user;" vertex="1" parent="XSYFVMKUtkD-H1u4hj6i-2">
          <mxGeometry x="689" y="114" width="27.5" height="20" as="geometry" />
        </mxCell>
        <mxCell id="4uHQJCX2Fivl2QLk6r_y-8" value="" style="shape=image;html=1;verticalAlign=top;verticalLabelPosition=bottom;labelBackgroundColor=#ffffff;imageAspect=0;aspect=fixed;image=https://cdn4.iconfinder.com/data/icons/ionicons/512/icon-ios7-bell-outline-128.png" vertex="1" parent="XSYFVMKUtkD-H1u4hj6i-2">
          <mxGeometry x="650" y="110" width="28" height="28" as="geometry" />
        </mxCell>
        <mxCell id="4uHQJCX2Fivl2QLk6r_y-4" value="" style="swimlane;startSize=0;" vertex="1" parent="1">
          <mxGeometry x="220" y="180" width="600" height="30" as="geometry" />
        </mxCell>
        <mxCell id="4uHQJCX2Fivl2QLk6r_y-6" value="" style="shape=image;html=1;verticalAlign=top;verticalLabelPosition=bottom;labelBackgroundColor=#ffffff;imageAspect=0;aspect=fixed;image=https://cdn1.iconfinder.com/data/icons/material-core/18/exit-to-app-128.png" vertex="1" parent="4uHQJCX2Fivl2QLk6r_y-4">
          <mxGeometry x="570" y="6" width="18" height="18" as="geometry" />
        </mxCell>
      </root>
    </mxGraphModel>
  </diagram>
</mxfile>
